<svg xmlns="http://www.w3.org/2000/svg" width="980" height="1190" viewBox="0 0 980 1190">
  <defs>
  <linearGradient id="svgBg" x1="0" y1="0" x2="0" y2="1" gradientUnits="objectBoundingBox">
    <stop offset="0%" stop-color="#ffffff"/>
    <stop offset="100%" stop-color="#f5f3ff"/>
  </linearGradient>
  <radialGradient id="topGlow" cx="50%" cy="0%" r="60%">
    <stop offset="0%" stop-color="#6366f1" stop-opacity="0.05"/>
    <stop offset="100%" stop-color="#6366f1" stop-opacity="0"/>
  </radialGradient>
  <linearGradient id="areaGrad_p0_s0" x1="0" y1="145.00" x2="0" y2="318.00" gradientUnits="userSpaceOnUse">
    <stop offset="0%" stop-color="#6366f1" stop-opacity="0.14"/>
    <stop offset="100%" stop-color="#6366f1" stop-opacity="0.0"/>
  </linearGradient>
  <linearGradient id="areaGrad_p1_s0" x1="0" y1="480.00" x2="0" y2="653.00" gradientUnits="userSpaceOnUse">
    <stop offset="0%" stop-color="#a855f7" stop-opacity="0.12"/>
    <stop offset="100%" stop-color="#a855f7" stop-opacity="0.0"/>
  </linearGradient>
  <linearGradient id="areaGrad_p2_s0" x1="0" y1="815.00" x2="0" y2="988.00" gradientUnits="userSpaceOnUse">
    <stop offset="0%" stop-color="#0ea5e9" stop-opacity="0.11"/>
    <stop offset="100%" stop-color="#0ea5e9" stop-opacity="0.0"/>
  </linearGradient>
  </defs>
  <rect width="100%" height="100%" fill="url(#svgBg)"/>
  <rect width="100%" height="100%" fill="url(#topGlow)"/>
  <text x="490.0" y="46" text-anchor="middle"
    font-family="system-ui,'Segoe UI',Arial,sans-serif"
    font-size="22" font-weight="700" fill="#1e1b4b" letter-spacing="0.4">CSMA/CA : impact du nombre de stations</text>
  <text x="490.0" y="68" text-anchor="middle"
    font-family="system-ui,'Segoe UI',Arial,sans-serif"
    font-size="12" fill="#6b7280">Nombre de stations</text>
  <rect x="50" y="90" width="880" height="280" rx="14" fill="#ffffff" stroke="rgba(99,102,241,0.18)" stroke-width="1.2" filter="drop-shadow(0 2px 8px rgba(99,102,241,0.08))"/>
<rect x="74" y="90" width="48" height="3" rx="2" fill="rgba(99,102,241,0.55)"/>
<text x="70" y="122" font-family="system-ui,'Segoe UI',Arial,sans-serif" font-size="15" font-weight="700" fill="#1e1b4b" letter-spacing="0.3">Débit</text>
<text x="70" y="140" font-family="system-ui,'Segoe UI',Arial,sans-serif" font-size="10" fill="#6b7280">bits/s</text>
<line x1="145" y1="318.00" x2="900" y2="318.00" stroke="rgba(99,102,241,0.08)" stroke-width="1" stroke-dasharray="4,4"/>
<line x1="145" y1="274.75" x2="900" y2="274.75" stroke="rgba(99,102,241,0.08)" stroke-width="1" stroke-dasharray="4,4"/>
<line x1="145" y1="231.50" x2="900" y2="231.50" stroke="rgba(99,102,241,0.08)" stroke-width="1" stroke-dasharray="4,4"/>
<line x1="145" y1="188.25" x2="900" y2="188.25" stroke="rgba(99,102,241,0.08)" stroke-width="1" stroke-dasharray="4,4"/>
<line x1="145" y1="145.00" x2="900" y2="145.00" stroke="rgba(99,102,241,0.08)" stroke-width="1" stroke-dasharray="4,4"/>
<line x1="145" y1="318" x2="900" y2="318" stroke="#d1d5db" stroke-width="1"/>
<line x1="145" y1="145" x2="145" y2="318" stroke="#d1d5db" stroke-width="1"/>
<text x="137" y="322.00" text-anchor="end" font-family="system-ui,'Segoe UI',Arial,sans-serif" font-size="10" fill="#6b7280">604480.00</text>
<text x="137" y="278.75" text-anchor="end" font-family="system-ui,'Segoe UI',Arial,sans-serif" font-size="10" fill="#6b7280">2866240.00</text>
<text x="137" y="235.50" text-anchor="end" font-family="system-ui,'Segoe UI',Arial,sans-serif" font-size="10" fill="#6b7280">5128000.00</text>
<text x="137" y="192.25" text-anchor="end" font-family="system-ui,'Segoe UI',Arial,sans-serif" font-size="10" fill="#6b7280">7389760.00</text>
<text x="137" y="149.00" text-anchor="end" font-family="system-ui,'Segoe UI',Arial,sans-serif" font-size="10" fill="#6b7280">9651520.00</text>
<line x1="145.00" y1="318" x2="145.00" y2="322" stroke="#d1d5db" stroke-width="1"/>
<text x="145.00" y="336" text-anchor="middle" font-family="system-ui,'Segoe UI',Arial,sans-serif" font-size="10" fill="#6b7280">2</text>
<line x1="228.89" y1="318" x2="228.89" y2="322" stroke="#d1d5db" stroke-width="1"/>
<text x="228.89" y="336" text-anchor="middle" font-family="system-ui,'Segoe UI',Arial,sans-serif" font-size="10" fill="#6b7280">4</text>
<line x1="312.78" y1="318" x2="312.78" y2="322" stroke="#d1d5db" stroke-width="1"/>
<text x="312.78" y="336" text-anchor="middle" font-family="system-ui,'Segoe UI',Arial,sans-serif" font-size="10" fill="#6b7280">6</text>
<line x1="396.67" y1="318" x2="396.67" y2="322" stroke="#d1d5db" stroke-width="1"/>
<text x="396.67" y="336" text-anchor="middle" font-family="system-ui,'Segoe UI',Arial,sans-serif" font-size="10" fill="#6b7280">8</text>
<line x1="480.56" y1="318" x2="480.56" y2="322" stroke="#d1d5db" stroke-width="1"/>
<text x="480.56" y="336" text-anchor="middle" font-family="system-ui,'Segoe UI',Arial,sans-serif" font-size="10" fill="#6b7280">10</text>
<line x1="564.44" y1="318" x2="564.44" y2="322" stroke="#d1d5db" stroke-width="1"/>
<text x="564.44" y="336" text-anchor="middle" font-family="system-ui,'Segoe UI',Arial,sans-serif" font-size="10" fill="#6b7280">12</text>
<line x1="648.33" y1="318" x2="648.33" y2="322" stroke="#d1d5db" stroke-width="1"/>
<text x="648.33" y="336" text-anchor="middle" font-family="system-ui,'Segoe UI',Arial,sans-serif" font-size="10" fill="#6b7280">14</text>
<line x1="732.22" y1="318" x2="732.22" y2="322" stroke="#d1d5db" stroke-width="1"/>
<text x="732.22" y="336" text-anchor="middle" font-family="system-ui,'Segoe UI',Arial,sans-serif" font-size="10" fill="#6b7280">16</text>
<line x1="816.11" y1="318" x2="816.11" y2="322" stroke="#d1d5db" stroke-width="1"/>
<text x="816.11" y="336" text-anchor="middle" font-family="system-ui,'Segoe UI',Arial,sans-serif" font-size="10" fill="#6b7280">18</text>
<line x1="900.00" y1="318" x2="900.00" y2="322" stroke="#d1d5db" stroke-width="1"/>
<text x="900.00" y="336" text-anchor="middle" font-family="system-ui,'Segoe UI',Arial,sans-serif" font-size="10" fill="#6b7280">20</text>
<path d="M145.00,303.58 C158.98,299.15 200.93,285.42 228.89,276.97 C256.85,268.51 284.81,260.70 312.78,252.83 C340.74,244.95 368.70,237.44 396.67,229.71 C424.63,221.98 452.59,213.77 480.56,206.46 C508.52,199.14 536.48,192.22 564.44,185.82 C592.41,179.43 620.37,172.49 648.33,168.09 C676.30,163.69 704.26,160.79 732.22,159.42 C760.19,158.05 788.15,159.55 816.11,159.88 C844.07,160.20 886.02,161.14 900.00,161.39 L900.00,318.00 L145.00,318.00 Z" fill="url(#areaGrad_p0_s0)" stroke="none"/>
<path d="M145.00,303.58 C158.98,299.15 200.93,285.42 228.89,276.97 C256.85,268.51 284.81,260.70 312.78,252.83 C340.74,244.95 368.70,237.44 396.67,229.71 C424.63,221.98 452.59,213.77 480.56,206.46 C508.52,199.14 536.48,192.22 564.44,185.82 C592.41,179.43 620.37,172.49 648.33,168.09 C676.30,163.69 704.26,160.79 732.22,159.42 C760.19,158.05 788.15,159.55 816.11,159.88 C844.07,160.20 886.02,161.14 900.00,161.39" fill="none" stroke="#6366f1" stroke-width="8" stroke-opacity="0.18" stroke-linecap="round" stroke-linejoin="round"/>
<path d="M145.00,303.58 C158.98,299.15 200.93,285.42 228.89,276.97 C256.85,268.51 284.81,260.70 312.78,252.83 C340.74,244.95 368.70,237.44 396.67,229.71 C424.63,221.98 452.59,213.77 480.56,206.46 C508.52,199.14 536.48,192.22 564.44,185.82 C592.41,179.43 620.37,172.49 648.33,168.09 C676.30,163.69 704.26,160.79 732.22,159.42 C760.19,158.05 788.15,159.55 816.11,159.88 C844.07,160.20 886.02,161.14 900.00,161.39" fill="none" stroke="#6366f1" stroke-width="2.5" stroke-linecap="round" stroke-linejoin="round"/>
<line x1="145.00" y1="302.60" x2="145.00" y2="304.57" stroke="#6366f1" stroke-width="1.2" stroke-opacity="0.45"/>
<line x1="141.00" y1="302.60" x2="149.00" y2="302.60" stroke="#6366f1" stroke-width="1.2" stroke-opacity="0.45"/>
<line x1="141.00" y1="304.57" x2="149.00" y2="304.57" stroke="#6366f1" stroke-width="1.2" stroke-opacity="0.45"/>
<line x1="228.89" y1="275.50" x2="228.89" y2="278.43" stroke="#6366f1" stroke-width="1.2" stroke-opacity="0.45"/>
<line x1="224.89" y1="275.50" x2="232.89" y2="275.50" stroke="#6366f1" stroke-width="1.2" stroke-opacity="0.45"/>
<line x1="224.89" y1="278.43" x2="232.89" y2="278.43" stroke="#6366f1" stroke-width="1.2" stroke-opacity="0.45"/>
<line x1="312.78" y1="251.14" x2="312.78" y2="254.51" stroke="#6366f1" stroke-width="1.2" stroke-opacity="0.45"/>
<line x1="308.78" y1="251.14" x2="316.78" y2="251.14" stroke="#6366f1" stroke-width="1.2" stroke-opacity="0.45"/>
<line x1="308.78" y1="254.51" x2="316.78" y2="254.51" stroke="#6366f1" stroke-width="1.2" stroke-opacity="0.45"/>
<line x1="396.67" y1="228.86" x2="396.67" y2="230.56" stroke="#6366f1" stroke-width="1.2" stroke-opacity="0.45"/>
<line x1="392.67" y1="228.86" x2="400.67" y2="228.86" stroke="#6366f1" stroke-width="1.2" stroke-opacity="0.45"/>
<line x1="392.67" y1="230.56" x2="400.67" y2="230.56" stroke="#6366f1" stroke-width="1.2" stroke-opacity="0.45"/>
<line x1="480.56" y1="205.93" x2="480.56" y2="206.98" stroke="#6366f1" stroke-width="1.2" stroke-opacity="0.45"/>
<line x1="476.56" y1="205.93" x2="484.56" y2="205.93" stroke="#6366f1" stroke-width="1.2" stroke-opacity="0.45"/>
<line x1="476.56" y1="206.98" x2="484.56" y2="206.98" stroke="#6366f1" stroke-width="1.2" stroke-opacity="0.45"/>
<line x1="564.44" y1="184.36" x2="564.44" y2="187.28" stroke="#6366f1" stroke-width="1.2" stroke-opacity="0.45"/>
<line x1="560.44" y1="184.36" x2="568.44" y2="184.36" stroke="#6366f1" stroke-width="1.2" stroke-opacity="0.45"/>
<line x1="560.44" y1="187.28" x2="568.44" y2="187.28" stroke="#6366f1" stroke-width="1.2" stroke-opacity="0.45"/>
<line x1="648.33" y1="167.66" x2="648.33" y2="168.52" stroke="#6366f1" stroke-width="1.2" stroke-opacity="0.45"/>
<line x1="644.33" y1="167.66" x2="652.33" y2="167.66" stroke="#6366f1" stroke-width="1.2" stroke-opacity="0.45"/>
<line x1="644.33" y1="168.52" x2="652.33" y2="168.52" stroke="#6366f1" stroke-width="1.2" stroke-opacity="0.45"/>
<line x1="732.22" y1="158.80" x2="732.22" y2="160.04" stroke="#6366f1" stroke-width="1.2" stroke-opacity="0.45"/>
<line x1="728.22" y1="158.80" x2="736.22" y2="158.80" stroke="#6366f1" stroke-width="1.2" stroke-opacity="0.45"/>
<line x1="728.22" y1="160.04" x2="736.22" y2="160.04" stroke="#6366f1" stroke-width="1.2" stroke-opacity="0.45"/>
<line x1="816.11" y1="159.73" x2="816.11" y2="160.02" stroke="#6366f1" stroke-width="1.2" stroke-opacity="0.45"/>
<line x1="812.11" y1="159.73" x2="820.11" y2="159.73" stroke="#6366f1" stroke-width="1.2" stroke-opacity="0.45"/>
<line x1="812.11" y1="160.02" x2="820.11" y2="160.02" stroke="#6366f1" stroke-width="1.2" stroke-opacity="0.45"/>
<line x1="900.00" y1="159.62" x2="900.00" y2="163.16" stroke="#6366f1" stroke-width="1.2" stroke-opacity="0.45"/>
<line x1="896.00" y1="159.62" x2="904.00" y2="159.62" stroke="#6366f1" stroke-width="1.2" stroke-opacity="0.45"/>
<line x1="896.00" y1="163.16" x2="904.00" y2="163.16" stroke="#6366f1" stroke-width="1.2" stroke-opacity="0.45"/>
<circle cx="145.00" cy="303.58" r="8" fill="#6366f1" fill-opacity="0.12" stroke="none"/>
<circle cx="145.00" cy="303.58" r="4" fill="#6366f1" stroke="#ffffff" stroke-width="1.5"/>
<circle cx="228.89" cy="276.97" r="8" fill="#6366f1" fill-opacity="0.12" stroke="none"/>
<circle cx="228.89" cy="276.97" r="4" fill="#6366f1" stroke="#ffffff" stroke-width="1.5"/>
<circle cx="312.78" cy="252.83" r="8" fill="#6366f1" fill-opacity="0.12" stroke="none"/>
<circle cx="312.78" cy="252.83" r="4" fill="#6366f1" stroke="#ffffff" stroke-width="1.5"/>
<circle cx="396.67" cy="229.71" r="8" fill="#6366f1" fill-opacity="0.12" stroke="none"/>
<circle cx="396.67" cy="229.71" r="4" fill="#6366f1" stroke="#ffffff" stroke-width="1.5"/>
<circle cx="480.56" cy="206.46" r="8" fill="#6366f1" fill-opacity="0.12" stroke="none"/>
<circle cx="480.56" cy="206.46" r="4" fill="#6366f1" stroke="#ffffff" stroke-width="1.5"/>
<circle cx="564.44" cy="185.82" r="8" fill="#6366f1" fill-opacity="0.12" stroke="none"/>
<circle cx="564.44" cy="185.82" r="4" fill="#6366f1" stroke="#ffffff" stroke-width="1.5"/>
<circle cx="648.33" cy="168.09" r="8" fill="#6366f1" fill-opacity="0.12" stroke="none"/>
<circle cx="648.33" cy="168.09" r="4" fill="#6366f1" stroke="#ffffff" stroke-width="1.5"/>
<circle cx="732.22" cy="159.42" r="8" fill="#6366f1" fill-opacity="0.12" stroke="none"/>
<circle cx="732.22" cy="159.42" r="4" fill="#6366f1" stroke="#ffffff" stroke-width="1.5"/>
<circle cx="816.11" cy="159.88" r="8" fill="#6366f1" fill-opacity="0.12" stroke="none"/>
<circle cx="816.11" cy="159.88" r="4" fill="#6366f1" stroke="#ffffff" stroke-width="1.5"/>
<circle cx="900.00" cy="161.39" r="8" fill="#6366f1" fill-opacity="0.12" stroke="none"/>
<circle cx="900.00" cy="161.39" r="4" fill="#6366f1" stroke="#ffffff" stroke-width="1.5"/>
<rect x="765" y="113" width="22" height="4" rx="2" fill="#6366f1" fill-opacity="0.85"/>
<text x="793" y="120" font-family="system-ui,'Segoe UI',Arial,sans-serif" font-size="11" fill="#374151">Débit (bits/s)</text>
  <rect x="50" y="425" width="880" height="280" rx="14" fill="#ffffff" stroke="rgba(99,102,241,0.18)" stroke-width="1.2" filter="drop-shadow(0 2px 8px rgba(99,102,241,0.08))"/>
<rect x="74" y="425" width="48" height="3" rx="2" fill="rgba(99,102,241,0.55)"/>
<text x="70" y="457" font-family="system-ui,'Segoe UI',Arial,sans-serif" font-size="15" font-weight="700" fill="#1e1b4b" letter-spacing="0.3">Taux de collision</text>
<text x="70" y="475" font-family="system-ui,'Segoe UI',Arial,sans-serif" font-size="10" fill="#6b7280">%</text>
<line x1="145" y1="653.00" x2="900" y2="653.00" stroke="rgba(99,102,241,0.08)" stroke-width="1" stroke-dasharray="4,4"/>
<line x1="145" y1="609.75" x2="900" y2="609.75" stroke="rgba(99,102,241,0.08)" stroke-width="1" stroke-dasharray="4,4"/>
<line x1="145" y1="566.50" x2="900" y2="566.50" stroke="rgba(99,102,241,0.08)" stroke-width="1" stroke-dasharray="4,4"/>
<line x1="145" y1="523.25" x2="900" y2="523.25" stroke="rgba(99,102,241,0.08)" stroke-width="1" stroke-dasharray="4,4"/>
<line x1="145" y1="480.00" x2="900" y2="480.00" stroke="rgba(99,102,241,0.08)" stroke-width="1" stroke-dasharray="4,4"/>
<line x1="145" y1="653" x2="900" y2="653" stroke="#d1d5db" stroke-width="1"/>
<line x1="145" y1="480" x2="145" y2="653" stroke="#d1d5db" stroke-width="1"/>
<text x="137" y="657.00" text-anchor="end" font-family="system-ui,'Segoe UI',Arial,sans-serif" font-size="10" fill="#6b7280">0.00</text>
<text x="137" y="613.75" text-anchor="end" font-family="system-ui,'Segoe UI',Arial,sans-serif" font-size="10" fill="#6b7280">9.36</text>
<text x="137" y="570.50" text-anchor="end" font-family="system-ui,'Segoe UI',Arial,sans-serif" font-size="10" fill="#6b7280">18.72</text>
<text x="137" y="527.25" text-anchor="end" font-family="system-ui,'Segoe UI',Arial,sans-serif" font-size="10" fill="#6b7280">28.08</text>
<text x="137" y="484.00" text-anchor="end" font-family="system-ui,'Segoe UI',Arial,sans-serif" font-size="10" fill="#6b7280">37.44</text>
<line x1="145.00" y1="653" x2="145.00" y2="657" stroke="#d1d5db" stroke-width="1"/>
<text x="145.00" y="671" text-anchor="middle" font-family="system-ui,'Segoe UI',Arial,sans-serif" font-size="10" fill="#6b7280">2</text>
<line x1="228.89" y1="653" x2="228.89" y2="657" stroke="#d1d5db" stroke-width="1"/>
<text x="228.89" y="671" text-anchor="middle" font-family="system-ui,'Segoe UI',Arial,sans-serif" font-size="10" fill="#6b7280">4</text>
<line x1="312.78" y1="653" x2="312.78" y2="657" stroke="#d1d5db" stroke-width="1"/>
<text x="312.78" y="671" text-anchor="middle" font-family="system-ui,'Segoe UI',Arial,sans-serif" font-size="10" fill="#6b7280">6</text>
<line x1="396.67" y1="653" x2="396.67" y2="657" stroke="#d1d5db" stroke-width="1"/>
<text x="396.67" y="671" text-anchor="middle" font-family="system-ui,'Segoe UI',Arial,sans-serif" font-size="10" fill="#6b7280">8</text>
<line x1="480.56" y1="653" x2="480.56" y2="657" stroke="#d1d5db" stroke-width="1"/>
<text x="480.56" y="671" text-anchor="middle" font-family="system-ui,'Segoe UI',Arial,sans-serif" font-size="10" fill="#6b7280">10</text>
<line x1="564.44" y1="653" x2="564.44" y2="657" stroke="#d1d5db" stroke-width="1"/>
<text x="564.44" y="671" text-anchor="middle" font-family="system-ui,'Segoe UI',Arial,sans-serif" font-size="10" fill="#6b7280">12</text>
<line x1="648.33" y1="653" x2="648.33" y2="657" stroke="#d1d5db" stroke-width="1"/>
<text x="648.33" y="671" text-anchor="middle" font-family="system-ui,'Segoe UI',Arial,sans-serif" font-size="10" fill="#6b7280">14</text>
<line x1="732.22" y1="653" x2="732.22" y2="657" stroke="#d1d5db" stroke-width="1"/>
<text x="732.22" y="671" text-anchor="middle" font-family="system-ui,'Segoe UI',Arial,sans-serif" font-size="10" fill="#6b7280">16</text>
<line x1="816.11" y1="653" x2="816.11" y2="657" stroke="#d1d5db" stroke-width="1"/>
<text x="816.11" y="671" text-anchor="middle" font-family="system-ui,'Segoe UI',Arial,sans-serif" font-size="10" fill="#6b7280">18</text>
<line x1="900.00" y1="653" x2="900.00" y2="657" stroke="#d1d5db" stroke-width="1"/>
<text x="900.00" y="671" text-anchor="middle" font-family="system-ui,'Segoe UI',Arial,sans-serif" font-size="10" fill="#6b7280">20</text>
<path d="M145.00,651.90 C158.98,651.68 200.93,651.39 228.89,650.58 C256.85,649.77 284.81,648.44 312.78,647.01 C340.74,645.57 368.70,644.89 396.67,641.97 C424.63,639.05 452.59,633.54 480.56,629.48 C508.52,625.42 536.48,623.58 564.44,617.62 C592.41,611.66 620.37,603.68 648.33,593.74 C676.30,583.80 704.26,570.40 732.22,557.98 C760.19,545.56 788.15,529.58 816.11,519.19 C844.07,508.80 886.02,499.55 900.00,495.63 L900.00,653.00 L145.00,653.00 Z" fill="url(#areaGrad_p1_s0)" stroke="none"/>
<path d="M145.00,651.90 C158.98,651.68 200.93,651.39 228.89,650.58 C256.85,649.77 284.81,648.44 312.78,647.01 C340.74,645.57 368.70,644.89 396.67,641.97 C424.63,639.05 452.59,633.54 480.56,629.48 C508.52,625.42 536.48,623.58 564.44,617.62 C592.41,611.66 620.37,603.68 648.33,593.74 C676.30,583.80 704.26,570.40 732.22,557.98 C760.19,545.56 788.15,529.58 816.11,519.19 C844.07,508.80 886.02,499.55 900.00,495.63" fill="none" stroke="#a855f7" stroke-width="8" stroke-opacity="0.18" stroke-linecap="round" stroke-linejoin="round"/>
<path d="M145.00,651.90 C158.98,651.68 200.93,651.39 228.89,650.58 C256.85,649.77 284.81,648.44 312.78,647.01 C340.74,645.57 368.70,644.89 396.67,641.97 C424.63,639.05 452.59,633.54 480.56,629.48 C508.52,625.42 536.48,623.58 564.44,617.62 C592.41,611.66 620.37,603.68 648.33,593.74 C676.30,583.80 704.26,570.40 732.22,557.98 C760.19,545.56 788.15,529.58 816.11,519.19 C844.07,508.80 886.02,499.55 900.00,495.63" fill="none" stroke="#a855f7" stroke-width="2.5" stroke-linecap="round" stroke-linejoin="round"/>
<line x1="145.00" y1="651.11" x2="145.00" y2="652.68" stroke="#a855f7" stroke-width="1.2" stroke-opacity="0.45"/>
<line x1="141.00" y1="651.11" x2="149.00" y2="651.11" stroke="#a855f7" stroke-width="1.2" stroke-opacity="0.45"/>
<line x1="141.00" y1="652.68" x2="149.00" y2="652.68" stroke="#a855f7" stroke-width="1.2" stroke-opacity="0.45"/>
<line x1="228.89" y1="649.87" x2="228.89" y2="651.29" stroke="#a855f7" stroke-width="1.2" stroke-opacity="0.45"/>
<line x1="224.89" y1="649.87" x2="232.89" y2="649.87" stroke="#a855f7" stroke-width="1.2" stroke-opacity="0.45"/>
<line x1="224.89" y1="651.29" x2="232.89" y2="651.29" stroke="#a855f7" stroke-width="1.2" stroke-opacity="0.45"/>
<line x1="312.78" y1="645.49" x2="312.78" y2="648.52" stroke="#a855f7" stroke-width="1.2" stroke-opacity="0.45"/>
<line x1="308.78" y1="645.49" x2="316.78" y2="645.49" stroke="#a855f7" stroke-width="1.2" stroke-opacity="0.45"/>
<line x1="308.78" y1="648.52" x2="316.78" y2="648.52" stroke="#a855f7" stroke-width="1.2" stroke-opacity="0.45"/>
<line x1="396.67" y1="639.77" x2="396.67" y2="644.16" stroke="#a855f7" stroke-width="1.2" stroke-opacity="0.45"/>
<line x1="392.67" y1="639.77" x2="400.67" y2="639.77" stroke="#a855f7" stroke-width="1.2" stroke-opacity="0.45"/>
<line x1="392.67" y1="644.16" x2="400.67" y2="644.16" stroke="#a855f7" stroke-width="1.2" stroke-opacity="0.45"/>
<line x1="480.56" y1="627.14" x2="480.56" y2="631.82" stroke="#a855f7" stroke-width="1.2" stroke-opacity="0.45"/>
<line x1="476.56" y1="627.14" x2="484.56" y2="627.14" stroke="#a855f7" stroke-width="1.2" stroke-opacity="0.45"/>
<line x1="476.56" y1="631.82" x2="484.56" y2="631.82" stroke="#a855f7" stroke-width="1.2" stroke-opacity="0.45"/>
<line x1="564.44" y1="616.11" x2="564.44" y2="619.13" stroke="#a855f7" stroke-width="1.2" stroke-opacity="0.45"/>
<line x1="560.44" y1="616.11" x2="568.44" y2="616.11" stroke="#a855f7" stroke-width="1.2" stroke-opacity="0.45"/>
<line x1="560.44" y1="619.13" x2="568.44" y2="619.13" stroke="#a855f7" stroke-width="1.2" stroke-opacity="0.45"/>
<line x1="648.33" y1="587.07" x2="648.33" y2="600.40" stroke="#a855f7" stroke-width="1.2" stroke-opacity="0.45"/>
<line x1="644.33" y1="587.07" x2="652.33" y2="587.07" stroke="#a855f7" stroke-width="1.2" stroke-opacity="0.45"/>
<line x1="644.33" y1="600.40" x2="652.33" y2="600.40" stroke="#a855f7" stroke-width="1.2" stroke-opacity="0.45"/>
<line x1="732.22" y1="555.63" x2="732.22" y2="560.33" stroke="#a855f7" stroke-width="1.2" stroke-opacity="0.45"/>
<line x1="728.22" y1="555.63" x2="736.22" y2="555.63" stroke="#a855f7" stroke-width="1.2" stroke-opacity="0.45"/>
<line x1="728.22" y1="560.33" x2="736.22" y2="560.33" stroke="#a855f7" stroke-width="1.2" stroke-opacity="0.45"/>
<line x1="816.11" y1="516.98" x2="816.11" y2="521.40" stroke="#a855f7" stroke-width="1.2" stroke-opacity="0.45"/>
<line x1="812.11" y1="516.98" x2="820.11" y2="516.98" stroke="#a855f7" stroke-width="1.2" stroke-opacity="0.45"/>
<line x1="812.11" y1="521.40" x2="820.11" y2="521.40" stroke="#a855f7" stroke-width="1.2" stroke-opacity="0.45"/>
<line x1="900.00" y1="488.92" x2="900.00" y2="502.33" stroke="#a855f7" stroke-width="1.2" stroke-opacity="0.45"/>
<line x1="896.00" y1="488.92" x2="904.00" y2="488.92" stroke="#a855f7" stroke-width="1.2" stroke-opacity="0.45"/>
<line x1="896.00" y1="502.33" x2="904.00" y2="502.33" stroke="#a855f7" stroke-width="1.2" stroke-opacity="0.45"/>
<circle cx="145.00" cy="651.90" r="8" fill="#a855f7" fill-opacity="0.12" stroke="none"/>
<circle cx="145.00" cy="651.90" r="4" fill="#a855f7" stroke="#ffffff" stroke-width="1.5"/>
<circle cx="228.89" cy="650.58" r="8" fill="#a855f7" fill-opacity="0.12" stroke="none"/>
<circle cx="228.89" cy="650.58" r="4" fill="#a855f7" stroke="#ffffff" stroke-width="1.5"/>
<circle cx="312.78" cy="647.01" r="8" fill="#a855f7" fill-opacity="0.12" stroke="none"/>
<circle cx="312.78" cy="647.01" r="4" fill="#a855f7" stroke="#ffffff" stroke-width="1.5"/>
<circle cx="396.67" cy="641.97" r="8" fill="#a855f7" fill-opacity="0.12" stroke="none"/>
<circle cx="396.67" cy="641.97" r="4" fill="#a855f7" stroke="#ffffff" stroke-width="1.5"/>
<circle cx="480.56" cy="629.48" r="8" fill="#a855f7" fill-opacity="0.12" stroke="none"/>
<circle cx="480.56" cy="629.48" r="4" fill="#a855f7" stroke="#ffffff" stroke-width="1.5"/>
<circle cx="564.44" cy="617.62" r="8" fill="#a855f7" fill-opacity="0.12" stroke="none"/>
<circle cx="564.44" cy="617.62" r="4" fill="#a855f7" stroke="#ffffff" stroke-width="1.5"/>
<circle cx="648.33" cy="593.74" r="8" fill="#a855f7" fill-opacity="0.12" stroke="none"/>
<circle cx="648.33" cy="593.74" r="4" fill="#a855f7" stroke="#ffffff" stroke-width="1.5"/>
<circle cx="732.22" cy="557.98" r="8" fill="#a855f7" fill-opacity="0.12" stroke="none"/>
<circle cx="732.22" cy="557.98" r="4" fill="#a855f7" stroke="#ffffff" stroke-width="1.5"/>
<circle cx="816.11" cy="519.19" r="8" fill="#a855f7" fill-opacity="0.12" stroke="none"/>
<circle cx="816.11" cy="519.19" r="4" fill="#a855f7" stroke="#ffffff" stroke-width="1.5"/>
<circle cx="900.00" cy="495.63" r="8" fill="#a855f7" fill-opacity="0.12" stroke="none"/>
<circle cx="900.00" cy="495.63" r="4" fill="#a855f7" stroke="#ffffff" stroke-width="1.5"/>
<rect x="765" y="448" width="22" height="4" rx="2" fill="#a855f7" fill-opacity="0.85"/>
<text x="793" y="455" font-family="system-ui,'Segoe UI',Arial,sans-serif" font-size="11" fill="#374151">Taux de collision (%)</text>
  <rect x="50" y="760" width="880" height="280" rx="14" fill="#ffffff" stroke="rgba(99,102,241,0.18)" stroke-width="1.2" filter="drop-shadow(0 2px 8px rgba(99,102,241,0.08))"/>
<rect x="74" y="760" width="48" height="3" rx="2" fill="rgba(99,102,241,0.55)"/>
<text x="70" y="792" font-family="system-ui,'Segoe UI',Arial,sans-serif" font-size="15" font-weight="700" fill="#1e1b4b" letter-spacing="0.3">Délai moyen</text>
<text x="70" y="810" font-family="system-ui,'Segoe UI',Arial,sans-serif" font-size="10" fill="#6b7280">ms</text>
<line x1="145" y1="988.00" x2="900" y2="988.00" stroke="rgba(99,102,241,0.08)" stroke-width="1" stroke-dasharray="4,4"/>
<line x1="145" y1="944.75" x2="900" y2="944.75" stroke="rgba(99,102,241,0.08)" stroke-width="1" stroke-dasharray="4,4"/>
<line x1="145" y1="901.50" x2="900" y2="901.50" stroke="rgba(99,102,241,0.08)" stroke-width="1" stroke-dasharray="4,4"/>
<line x1="145" y1="858.25" x2="900" y2="858.25" stroke="rgba(99,102,241,0.08)" stroke-width="1" stroke-dasharray="4,4"/>
<line x1="145" y1="815.00" x2="900" y2="815.00" stroke="rgba(99,102,241,0.08)" stroke-width="1" stroke-dasharray="4,4"/>
<line x1="145" y1="988" x2="900" y2="988" stroke="#d1d5db" stroke-width="1"/>
<line x1="145" y1="815" x2="145" y2="988" stroke="#d1d5db" stroke-width="1"/>
<text x="137" y="992.00" text-anchor="end" font-family="system-ui,'Segoe UI',Arial,sans-serif" font-size="10" fill="#6b7280">0.27</text>
<text x="137" y="948.75" text-anchor="end" font-family="system-ui,'Segoe UI',Arial,sans-serif" font-size="10" fill="#6b7280">3.04</text>
<text x="137" y="905.50" text-anchor="end" font-family="system-ui,'Segoe UI',Arial,sans-serif" font-size="10" fill="#6b7280">5.82</text>
<text x="137" y="862.25" text-anchor="end" font-family="system-ui,'Segoe UI',Arial,sans-serif" font-size="10" fill="#6b7280">8.59</text>
<text x="137" y="819.00" text-anchor="end" font-family="system-ui,'Segoe UI',Arial,sans-serif" font-size="10" fill="#6b7280">11.36</text>
<line x1="145.00" y1="988" x2="145.00" y2="992" stroke="#d1d5db" stroke-width="1"/>
<text x="145.00" y="1006" text-anchor="middle" font-family="system-ui,'Segoe UI',Arial,sans-serif" font-size="10" fill="#6b7280">2</text>
<line x1="228.89" y1="988" x2="228.89" y2="992" stroke="#d1d5db" stroke-width="1"/>
<text x="228.89" y="1006" text-anchor="middle" font-family="system-ui,'Segoe UI',Arial,sans-serif" font-size="10" fill="#6b7280">4</text>
<line x1="312.78" y1="988" x2="312.78" y2="992" stroke="#d1d5db" stroke-width="1"/>
<text x="312.78" y="1006" text-anchor="middle" font-family="system-ui,'Segoe UI',Arial,sans-serif" font-size="10" fill="#6b7280">6</text>
<line x1="396.67" y1="988" x2="396.67" y2="992" stroke="#d1d5db" stroke-width="1"/>
<text x="396.67" y="1006" text-anchor="middle" font-family="system-ui,'Segoe UI',Arial,sans-serif" font-size="10" fill="#6b7280">8</text>
<line x1="480.56" y1="988" x2="480.56" y2="992" stroke="#d1d5db" stroke-width="1"/>
<text x="480.56" y="1006" text-anchor="middle" font-family="system-ui,'Segoe UI',Arial,sans-serif" font-size="10" fill="#6b7280">10</text>
<line x1="564.44" y1="988" x2="564.44" y2="992" stroke="#d1d5db" stroke-width="1"/>
<text x="564.44" y="1006" text-anchor="middle" font-family="system-ui,'Segoe UI',Arial,sans-serif" font-size="10" fill="#6b7280">12</text>
<line x1="648.33" y1="988" x2="648.33" y2="992" stroke="#d1d5db" stroke-width="1"/>
<text x="648.33" y="1006" text-anchor="middle" font-family="system-ui,'Segoe UI',Arial,sans-serif" font-size="10" fill="#6b7280">14</text>
<line x1="732.22" y1="988" x2="732.22" y2="992" stroke="#d1d5db" stroke-width="1"/>
<text x="732.22" y="1006" text-anchor="middle" font-family="system-ui,'Segoe UI',Arial,sans-serif" font-size="10" fill="#6b7280">16</text>
<line x1="816.11" y1="988" x2="816.11" y2="992" stroke="#d1d5db" stroke-width="1"/>
<text x="816.11" y="1006" text-anchor="middle" font-family="system-ui,'Segoe UI',Arial,sans-serif" font-size="10" fill="#6b7280">18</text>
<line x1="900.00" y1="988" x2="900.00" y2="992" stroke="#d1d5db" stroke-width="1"/>
<text x="900.00" y="1006" text-anchor="middle" font-family="system-ui,'Segoe UI',Arial,sans-serif" font-size="10" fill="#6b7280">20</text>
<path d="M145.00,973.58 C158.98,973.32 200.93,972.60 228.89,971.98 C256.85,971.36 284.81,970.77 312.78,969.87 C340.74,968.98 368.70,968.00 396.67,966.62 C424.63,965.24 452.59,963.55 480.56,961.59 C508.52,959.64 536.48,958.24 564.44,954.88 C592.41,951.52 620.37,947.98 648.33,941.42 C676.30,934.87 704.26,927.02 732.22,915.54 C760.19,904.07 788.15,886.93 816.11,872.57 C844.07,858.22 886.02,836.61 900.00,829.42 L900.00,988.00 L145.00,988.00 Z" fill="url(#areaGrad_p2_s0)" stroke="none"/>
<path d="M145.00,973.58 C158.98,973.32 200.93,972.60 228.89,971.98 C256.85,971.36 284.81,970.77 312.78,969.87 C340.74,968.98 368.70,968.00 396.67,966.62 C424.63,965.24 452.59,963.55 480.56,961.59 C508.52,959.64 536.48,958.24 564.44,954.88 C592.41,951.52 620.37,947.98 648.33,941.42 C676.30,934.87 704.26,927.02 732.22,915.54 C760.19,904.07 788.15,886.93 816.11,872.57 C844.07,858.22 886.02,836.61 900.00,829.42" fill="none" stroke="#0ea5e9" stroke-width="8" stroke-opacity="0.18" stroke-linecap="round" stroke-linejoin="round"/>
<path d="M145.00,973.58 C158.98,973.32 200.93,972.60 228.89,971.98 C256.85,971.36 284.81,970.77 312.78,969.87 C340.74,968.98 368.70,968.00 396.67,966.62 C424.63,965.24 452.59,963.55 480.56,961.59 C508.52,959.64 536.48,958.24 564.44,954.88 C592.41,951.52 620.37,947.98 648.33,941.42 C676.30,934.87 704.26,927.02 732.22,915.54 C760.19,904.07 788.15,886.93 816.11,872.57 C844.07,858.22 886.02,836.61 900.00,829.42" fill="none" stroke="#0ea5e9" stroke-width="2.5" stroke-linecap="round" stroke-linejoin="round"/>
<line x1="145.00" y1="973.53" x2="145.00" y2="973.64" stroke="#0ea5e9" stroke-width="1.2" stroke-opacity="0.45"/>
<line x1="141.00" y1="973.53" x2="149.00" y2="973.53" stroke="#0ea5e9" stroke-width="1.2" stroke-opacity="0.45"/>
<line x1="141.00" y1="973.64" x2="149.00" y2="973.64" stroke="#0ea5e9" stroke-width="1.2" stroke-opacity="0.45"/>
<line x1="228.89" y1="971.81" x2="228.89" y2="972.15" stroke="#0ea5e9" stroke-width="1.2" stroke-opacity="0.45"/>
<line x1="224.89" y1="971.81" x2="232.89" y2="971.81" stroke="#0ea5e9" stroke-width="1.2" stroke-opacity="0.45"/>
<line x1="224.89" y1="972.15" x2="232.89" y2="972.15" stroke="#0ea5e9" stroke-width="1.2" stroke-opacity="0.45"/>
<line x1="312.78" y1="969.58" x2="312.78" y2="970.17" stroke="#0ea5e9" stroke-width="1.2" stroke-opacity="0.45"/>
<line x1="308.78" y1="969.58" x2="316.78" y2="969.58" stroke="#0ea5e9" stroke-width="1.2" stroke-opacity="0.45"/>
<line x1="308.78" y1="970.17" x2="316.78" y2="970.17" stroke="#0ea5e9" stroke-width="1.2" stroke-opacity="0.45"/>
<line x1="396.67" y1="966.09" x2="396.67" y2="967.16" stroke="#0ea5e9" stroke-width="1.2" stroke-opacity="0.45"/>
<line x1="392.67" y1="966.09" x2="400.67" y2="966.09" stroke="#0ea5e9" stroke-width="1.2" stroke-opacity="0.45"/>
<line x1="392.67" y1="967.16" x2="400.67" y2="967.16" stroke="#0ea5e9" stroke-width="1.2" stroke-opacity="0.45"/>
<line x1="480.56" y1="961.22" x2="480.56" y2="961.97" stroke="#0ea5e9" stroke-width="1.2" stroke-opacity="0.45"/>
<line x1="476.56" y1="961.22" x2="484.56" y2="961.22" stroke="#0ea5e9" stroke-width="1.2" stroke-opacity="0.45"/>
<line x1="476.56" y1="961.97" x2="484.56" y2="961.97" stroke="#0ea5e9" stroke-width="1.2" stroke-opacity="0.45"/>
<line x1="564.44" y1="954.61" x2="564.44" y2="955.14" stroke="#0ea5e9" stroke-width="1.2" stroke-opacity="0.45"/>
<line x1="560.44" y1="954.61" x2="568.44" y2="954.61" stroke="#0ea5e9" stroke-width="1.2" stroke-opacity="0.45"/>
<line x1="560.44" y1="955.14" x2="568.44" y2="955.14" stroke="#0ea5e9" stroke-width="1.2" stroke-opacity="0.45"/>
<line x1="648.33" y1="938.81" x2="648.33" y2="944.04" stroke="#0ea5e9" stroke-width="1.2" stroke-opacity="0.45"/>
<line x1="644.33" y1="938.81" x2="652.33" y2="938.81" stroke="#0ea5e9" stroke-width="1.2" stroke-opacity="0.45"/>
<line x1="644.33" y1="944.04" x2="652.33" y2="944.04" stroke="#0ea5e9" stroke-width="1.2" stroke-opacity="0.45"/>
<line x1="732.22" y1="913.70" x2="732.22" y2="917.38" stroke="#0ea5e9" stroke-width="1.2" stroke-opacity="0.45"/>
<line x1="728.22" y1="913.70" x2="736.22" y2="913.70" stroke="#0ea5e9" stroke-width="1.2" stroke-opacity="0.45"/>
<line x1="728.22" y1="917.38" x2="736.22" y2="917.38" stroke="#0ea5e9" stroke-width="1.2" stroke-opacity="0.45"/>
<line x1="816.11" y1="870.53" x2="816.11" y2="874.62" stroke="#0ea5e9" stroke-width="1.2" stroke-opacity="0.45"/>
<line x1="812.11" y1="870.53" x2="820.11" y2="870.53" stroke="#0ea5e9" stroke-width="1.2" stroke-opacity="0.45"/>
<line x1="812.11" y1="874.62" x2="820.11" y2="874.62" stroke="#0ea5e9" stroke-width="1.2" stroke-opacity="0.45"/>
<line x1="900.00" y1="816.40" x2="900.00" y2="842.43" stroke="#0ea5e9" stroke-width="1.2" stroke-opacity="0.45"/>
<line x1="896.00" y1="816.40" x2="904.00" y2="816.40" stroke="#0ea5e9" stroke-width="1.2" stroke-opacity="0.45"/>
<line x1="896.00" y1="842.43" x2="904.00" y2="842.43" stroke="#0ea5e9" stroke-width="1.2" stroke-opacity="0.45"/>
<circle cx="145.00" cy="973.58" r="8" fill="#0ea5e9" fill-opacity="0.12" stroke="none"/>
<circle cx="145.00" cy="973.58" r="4" fill="#0ea5e9" stroke="#ffffff" stroke-width="1.5"/>
<circle cx="228.89" cy="971.98" r="8" fill="#0ea5e9" fill-opacity="0.12" stroke="none"/>
<circle cx="228.89" cy="971.98" r="4" fill="#0ea5e9" stroke="#ffffff" stroke-width="1.5"/>
<circle cx="312.78" cy="969.87" r="8" fill="#0ea5e9" fill-opacity="0.12" stroke="none"/>
<circle cx="312.78" cy="969.87" r="4" fill="#0ea5e9" stroke="#ffffff" stroke-width="1.5"/>
<circle cx="396.67" cy="966.62" r="8" fill="#0ea5e9" fill-opacity="0.12" stroke="none"/>
<circle cx="396.67" cy="966.62" r="4" fill="#0ea5e9" stroke="#ffffff" stroke-width="1.5"/>
<circle cx="480.56" cy="961.59" r="8" fill="#0ea5e9" fill-opacity="0.12" stroke="none"/>
<circle cx="480.56" cy="961.59" r="4" fill="#0ea5e9" stroke="#ffffff" stroke-width="1.5"/>
<circle cx="564.44" cy="954.88" r="8" fill="#0ea5e9" fill-opacity="0.12" stroke="none"/>
<circle cx="564.44" cy="954.88" r="4" fill="#0ea5e9" stroke="#ffffff" stroke-width="1.5"/>
<circle cx="648.33" cy="941.42" r="8" fill="#0ea5e9" fill-opacity="0.12" stroke="none"/>
<circle cx="648.33" cy="941.42" r="4" fill="#0ea5e9" stroke="#ffffff" stroke-width="1.5"/>
<circle cx="732.22" cy="915.54" r="8" fill="#0ea5e9" fill-opacity="0.12" stroke="none"/>
<circle cx="732.22" cy="915.54" r="4" fill="#0ea5e9" stroke="#ffffff" stroke-width="1.5"/>
<circle cx="816.11" cy="872.57" r="8" fill="#0ea5e9" fill-opacity="0.12" stroke="none"/>
<circle cx="816.11" cy="872.57" r="4" fill="#0ea5e9" stroke="#ffffff" stroke-width="1.5"/>
<circle cx="900.00" cy="829.42" r="8" fill="#0ea5e9" fill-opacity="0.12" stroke="none"/>
<circle cx="900.00" cy="829.42" r="4" fill="#0ea5e9" stroke="#ffffff" stroke-width="1.5"/>
<rect x="765" y="783" width="22" height="4" rx="2" fill="#0ea5e9" fill-opacity="0.85"/>
<text x="793" y="790" font-family="system-ui,'Segoe UI',Arial,sans-serif" font-size="11" fill="#374151">Délai moyen (ms)</text>
  <text x="960" y="1176" text-anchor="end"
    font-family="system-ui,'Segoe UI',Arial,sans-serif"
    font-size="10" fill="#9ca3af">csma_ca_sim.py</text>
</svg>
