<svg xmlns="http://www.w3.org/2000/svg" width="980" height="1160" viewBox="0 0 980 1160">
  <defs>
    <linearGradient id="bg" x1="0" y1="0" x2="1" y2="1">
      <stop offset="0%" stop-color="#f8fafc"/>
      <stop offset="100%" stop-color="#eef2ff"/>
    </linearGradient>
  </defs>
  <rect width="100%" height="100%" fill="url(#bg)"/>
  <text x="490.0" y="40" text-anchor="middle" font-family="Arial, Helvetica, sans-serif" font-size="24" font-weight="700" fill="#111827">CSMA/CA: impact of station count</text>
  <text x="490.0" y="64" text-anchor="middle" font-family="Arial, Helvetica, sans-serif" font-size="12" fill="#475569">Number of stations</text>
  <rect x="50" y="80" width="880" height="270" rx="18" fill="#fbfbfd" stroke="#d9dce3"/>
<text x="68" y="106" font-family="Arial, Helvetica, sans-serif" font-size="18" font-weight="700" fill="#1f2937">Throughput</text>
<text x="68" y="130" font-family="Arial, Helvetica, sans-serif" font-size="12" fill="#4b5563">Bits/s</text>
<line x1="140" y1="302" x2="895" y2="302" stroke="#334155" stroke-width="1.2"/>
<line x1="140" y1="115" x2="140" y2="302" stroke="#334155" stroke-width="1.2"/>
<line x1="135" y1="302.0" x2="140" y2="302.0" stroke="#334155" stroke-width="1"/>
<text x="130" y="306.0" text-anchor="end" font-family="Arial, Helvetica, sans-serif" font-size="11" fill="#475569">149504.00</text>
<line x1="135" y1="255.25" x2="140" y2="255.25" stroke="#334155" stroke-width="1"/>
<text x="130" y="259.25" text-anchor="end" font-family="Arial, Helvetica, sans-serif" font-size="11" fill="#475569">1341752.00</text>
<line x1="135" y1="208.5" x2="140" y2="208.5" stroke="#334155" stroke-width="1"/>
<text x="130" y="212.5" text-anchor="end" font-family="Arial, Helvetica, sans-serif" font-size="11" fill="#475569">2534000.00</text>
<line x1="135" y1="161.75" x2="140" y2="161.75" stroke="#334155" stroke-width="1"/>
<text x="130" y="165.75" text-anchor="end" font-family="Arial, Helvetica, sans-serif" font-size="11" fill="#475569">3726248.00</text>
<line x1="135" y1="115.0" x2="140" y2="115.0" stroke="#334155" stroke-width="1"/>
<text x="130" y="119.0" text-anchor="end" font-family="Arial, Helvetica, sans-serif" font-size="11" fill="#475569">4918496.00</text>
<line x1="140.0" y1="302" x2="140.0" y2="307" stroke="#334155" stroke-width="1"/>
<text x="140.0" y="322" text-anchor="middle" font-family="Arial, Helvetica, sans-serif" font-size="11" fill="#475569">2</text>
<line x1="223.88888888888889" y1="302" x2="223.88888888888889" y2="307" stroke="#334155" stroke-width="1"/>
<text x="223.88888888888889" y="322" text-anchor="middle" font-family="Arial, Helvetica, sans-serif" font-size="11" fill="#475569">4</text>
<line x1="307.77777777777777" y1="302" x2="307.77777777777777" y2="307" stroke="#334155" stroke-width="1"/>
<text x="307.77777777777777" y="322" text-anchor="middle" font-family="Arial, Helvetica, sans-serif" font-size="11" fill="#475569">6</text>
<line x1="391.66666666666663" y1="302" x2="391.66666666666663" y2="307" stroke="#334155" stroke-width="1"/>
<text x="391.66666666666663" y="322" text-anchor="middle" font-family="Arial, Helvetica, sans-serif" font-size="11" fill="#475569">8</text>
<line x1="475.55555555555554" y1="302" x2="475.55555555555554" y2="307" stroke="#334155" stroke-width="1"/>
<text x="475.55555555555554" y="322" text-anchor="middle" font-family="Arial, Helvetica, sans-serif" font-size="11" fill="#475569">10</text>
<line x1="559.4444444444445" y1="302" x2="559.4444444444445" y2="307" stroke="#334155" stroke-width="1"/>
<text x="559.4444444444445" y="322" text-anchor="middle" font-family="Arial, Helvetica, sans-serif" font-size="11" fill="#475569">12</text>
<line x1="643.3333333333333" y1="302" x2="643.3333333333333" y2="307" stroke="#334155" stroke-width="1"/>
<text x="643.3333333333333" y="322" text-anchor="middle" font-family="Arial, Helvetica, sans-serif" font-size="11" fill="#475569">14</text>
<line x1="727.2222222222222" y1="302" x2="727.2222222222222" y2="307" stroke="#334155" stroke-width="1"/>
<text x="727.2222222222222" y="322" text-anchor="middle" font-family="Arial, Helvetica, sans-serif" font-size="11" fill="#475569">16</text>
<line x1="811.1111111111111" y1="302" x2="811.1111111111111" y2="307" stroke="#334155" stroke-width="1"/>
<text x="811.1111111111111" y="322" text-anchor="middle" font-family="Arial, Helvetica, sans-serif" font-size="11" fill="#475569">18</text>
<line x1="895.0" y1="302" x2="895.0" y2="307" stroke="#334155" stroke-width="1"/>
<text x="895.0" y="322" text-anchor="middle" font-family="Arial, Helvetica, sans-serif" font-size="11" fill="#475569">20</text>
<polyline fill="none" stroke="#dc2626" stroke-width="3" points="140.00,289.10 223.89,272.26 307.78,252.40 391.67,234.46 475.56,213.16 559.44,197.94 643.33,180.57 727.22,163.88 811.11,147.47 895.00,127.90"/>
<circle cx="140.00" cy="289.10" r="4.5" fill="#dc2626" stroke="#ffffff" stroke-width="1"/>
<circle cx="223.89" cy="272.26" r="4.5" fill="#dc2626" stroke="#ffffff" stroke-width="1"/>
<circle cx="307.78" cy="252.40" r="4.5" fill="#dc2626" stroke="#ffffff" stroke-width="1"/>
<circle cx="391.67" cy="234.46" r="4.5" fill="#dc2626" stroke="#ffffff" stroke-width="1"/>
<circle cx="475.56" cy="213.16" r="4.5" fill="#dc2626" stroke="#ffffff" stroke-width="1"/>
<circle cx="559.44" cy="197.94" r="4.5" fill="#dc2626" stroke="#ffffff" stroke-width="1"/>
<circle cx="643.33" cy="180.57" r="4.5" fill="#dc2626" stroke="#ffffff" stroke-width="1"/>
<circle cx="727.22" cy="163.88" r="4.5" fill="#dc2626" stroke="#ffffff" stroke-width="1"/>
<circle cx="811.11" cy="147.47" r="4.5" fill="#dc2626" stroke="#ffffff" stroke-width="1"/>
<circle cx="895.00" cy="127.90" r="4.5" fill="#dc2626" stroke="#ffffff" stroke-width="1"/>
<rect x="760" y="94" width="10" height="10" fill="#dc2626"/>
<text x="776" y="103" font-family="Arial, Helvetica, sans-serif" font-size="11" fill="#334155">Bits/s</text>
  <rect x="50" y="410" width="880" height="270" rx="18" fill="#fbfbfd" stroke="#d9dce3"/>
<text x="68" y="436" font-family="Arial, Helvetica, sans-serif" font-size="18" font-weight="700" fill="#1f2937">Collision rate</text>
<text x="68" y="460" font-family="Arial, Helvetica, sans-serif" font-size="12" fill="#4b5563">Collision rate (%)</text>
<line x1="140" y1="632" x2="895" y2="632" stroke="#334155" stroke-width="1.2"/>
<line x1="140" y1="445" x2="140" y2="632" stroke="#334155" stroke-width="1.2"/>
<line x1="135" y1="632.0" x2="140" y2="632.0" stroke="#334155" stroke-width="1"/>
<text x="130" y="636.0" text-anchor="end" font-family="Arial, Helvetica, sans-serif" font-size="11" fill="#475569">0.00</text>
<line x1="135" y1="585.25" x2="140" y2="585.25" stroke="#334155" stroke-width="1"/>
<text x="130" y="589.25" text-anchor="end" font-family="Arial, Helvetica, sans-serif" font-size="11" fill="#475569">1.18</text>
<line x1="135" y1="538.5" x2="140" y2="538.5" stroke="#334155" stroke-width="1"/>
<text x="130" y="542.5" text-anchor="end" font-family="Arial, Helvetica, sans-serif" font-size="11" fill="#475569">2.35</text>
<line x1="135" y1="491.75" x2="140" y2="491.75" stroke="#334155" stroke-width="1"/>
<text x="130" y="495.75" text-anchor="end" font-family="Arial, Helvetica, sans-serif" font-size="11" fill="#475569">3.53</text>
<line x1="135" y1="445.0" x2="140" y2="445.0" stroke="#334155" stroke-width="1"/>
<text x="130" y="449.0" text-anchor="end" font-family="Arial, Helvetica, sans-serif" font-size="11" fill="#475569">4.71</text>
<line x1="140.0" y1="632" x2="140.0" y2="637" stroke="#334155" stroke-width="1"/>
<text x="140.0" y="652" text-anchor="middle" font-family="Arial, Helvetica, sans-serif" font-size="11" fill="#475569">2</text>
<line x1="223.88888888888889" y1="632" x2="223.88888888888889" y2="637" stroke="#334155" stroke-width="1"/>
<text x="223.88888888888889" y="652" text-anchor="middle" font-family="Arial, Helvetica, sans-serif" font-size="11" fill="#475569">4</text>
<line x1="307.77777777777777" y1="632" x2="307.77777777777777" y2="637" stroke="#334155" stroke-width="1"/>
<text x="307.77777777777777" y="652" text-anchor="middle" font-family="Arial, Helvetica, sans-serif" font-size="11" fill="#475569">6</text>
<line x1="391.66666666666663" y1="632" x2="391.66666666666663" y2="637" stroke="#334155" stroke-width="1"/>
<text x="391.66666666666663" y="652" text-anchor="middle" font-family="Arial, Helvetica, sans-serif" font-size="11" fill="#475569">8</text>
<line x1="475.55555555555554" y1="632" x2="475.55555555555554" y2="637" stroke="#334155" stroke-width="1"/>
<text x="475.55555555555554" y="652" text-anchor="middle" font-family="Arial, Helvetica, sans-serif" font-size="11" fill="#475569">10</text>
<line x1="559.4444444444445" y1="632" x2="559.4444444444445" y2="637" stroke="#334155" stroke-width="1"/>
<text x="559.4444444444445" y="652" text-anchor="middle" font-family="Arial, Helvetica, sans-serif" font-size="11" fill="#475569">12</text>
<line x1="643.3333333333333" y1="632" x2="643.3333333333333" y2="637" stroke="#334155" stroke-width="1"/>
<text x="643.3333333333333" y="652" text-anchor="middle" font-family="Arial, Helvetica, sans-serif" font-size="11" fill="#475569">14</text>
<line x1="727.2222222222222" y1="632" x2="727.2222222222222" y2="637" stroke="#334155" stroke-width="1"/>
<text x="727.2222222222222" y="652" text-anchor="middle" font-family="Arial, Helvetica, sans-serif" font-size="11" fill="#475569">16</text>
<line x1="811.1111111111111" y1="632" x2="811.1111111111111" y2="637" stroke="#334155" stroke-width="1"/>
<text x="811.1111111111111" y="652" text-anchor="middle" font-family="Arial, Helvetica, sans-serif" font-size="11" fill="#475569">18</text>
<line x1="895.0" y1="632" x2="895.0" y2="637" stroke="#334155" stroke-width="1"/>
<text x="895.0" y="652" text-anchor="middle" font-family="Arial, Helvetica, sans-serif" font-size="11" fill="#475569">20</text>
<polyline fill="none" stroke="#dc2626" stroke-width="3" points="140.00,632.00 223.89,632.00 307.78,627.47 391.67,598.94 475.56,583.02 559.44,591.64 643.33,572.27 727.22,490.19 811.11,487.91 895.00,458.85"/>
<circle cx="140.00" cy="632.00" r="4.5" fill="#dc2626" stroke="#ffffff" stroke-width="1"/>
<circle cx="223.89" cy="632.00" r="4.5" fill="#dc2626" stroke="#ffffff" stroke-width="1"/>
<circle cx="307.78" cy="627.47" r="4.5" fill="#dc2626" stroke="#ffffff" stroke-width="1"/>
<circle cx="391.67" cy="598.94" r="4.5" fill="#dc2626" stroke="#ffffff" stroke-width="1"/>
<circle cx="475.56" cy="583.02" r="4.5" fill="#dc2626" stroke="#ffffff" stroke-width="1"/>
<circle cx="559.44" cy="591.64" r="4.5" fill="#dc2626" stroke="#ffffff" stroke-width="1"/>
<circle cx="643.33" cy="572.27" r="4.5" fill="#dc2626" stroke="#ffffff" stroke-width="1"/>
<circle cx="727.22" cy="490.19" r="4.5" fill="#dc2626" stroke="#ffffff" stroke-width="1"/>
<circle cx="811.11" cy="487.91" r="4.5" fill="#dc2626" stroke="#ffffff" stroke-width="1"/>
<circle cx="895.00" cy="458.85" r="4.5" fill="#dc2626" stroke="#ffffff" stroke-width="1"/>
<rect x="760" y="424" width="10" height="10" fill="#dc2626"/>
<text x="776" y="433" font-family="Arial, Helvetica, sans-serif" font-size="11" fill="#334155">Collision rate</text>
  <rect x="50" y="740" width="880" height="270" rx="18" fill="#fbfbfd" stroke="#d9dce3"/>
<text x="68" y="766" font-family="Arial, Helvetica, sans-serif" font-size="18" font-weight="700" fill="#1f2937">Transmission delay</text>
<text x="68" y="790" font-family="Arial, Helvetica, sans-serif" font-size="12" fill="#4b5563">Delay (ms)</text>
<line x1="140" y1="962" x2="895" y2="962" stroke="#334155" stroke-width="1.2"/>
<line x1="140" y1="775" x2="140" y2="962" stroke="#334155" stroke-width="1.2"/>
<line x1="135" y1="962.0" x2="140" y2="962.0" stroke="#334155" stroke-width="1"/>
<text x="130" y="966.0" text-anchor="end" font-family="Arial, Helvetica, sans-serif" font-size="11" fill="#475569">1.50</text>
<line x1="135" y1="915.25" x2="140" y2="915.25" stroke="#334155" stroke-width="1"/>
<text x="130" y="919.25" text-anchor="end" font-family="Arial, Helvetica, sans-serif" font-size="11" fill="#475569">1.79</text>
<line x1="135" y1="868.5" x2="140" y2="868.5" stroke="#334155" stroke-width="1"/>
<text x="130" y="872.5" text-anchor="end" font-family="Arial, Helvetica, sans-serif" font-size="11" fill="#475569">2.08</text>
<line x1="135" y1="821.75" x2="140" y2="821.75" stroke="#334155" stroke-width="1"/>
<text x="130" y="825.75" text-anchor="end" font-family="Arial, Helvetica, sans-serif" font-size="11" fill="#475569">2.37</text>
<line x1="135" y1="775.0" x2="140" y2="775.0" stroke="#334155" stroke-width="1"/>
<text x="130" y="779.0" text-anchor="end" font-family="Arial, Helvetica, sans-serif" font-size="11" fill="#475569">2.66</text>
<line x1="140.0" y1="962" x2="140.0" y2="967" stroke="#334155" stroke-width="1"/>
<text x="140.0" y="982" text-anchor="middle" font-family="Arial, Helvetica, sans-serif" font-size="11" fill="#475569">2</text>
<line x1="223.88888888888889" y1="962" x2="223.88888888888889" y2="967" stroke="#334155" stroke-width="1"/>
<text x="223.88888888888889" y="982" text-anchor="middle" font-family="Arial, Helvetica, sans-serif" font-size="11" fill="#475569">4</text>
<line x1="307.77777777777777" y1="962" x2="307.77777777777777" y2="967" stroke="#334155" stroke-width="1"/>
<text x="307.77777777777777" y="982" text-anchor="middle" font-family="Arial, Helvetica, sans-serif" font-size="11" fill="#475569">6</text>
<line x1="391.66666666666663" y1="962" x2="391.66666666666663" y2="967" stroke="#334155" stroke-width="1"/>
<text x="391.66666666666663" y="982" text-anchor="middle" font-family="Arial, Helvetica, sans-serif" font-size="11" fill="#475569">8</text>
<line x1="475.55555555555554" y1="962" x2="475.55555555555554" y2="967" stroke="#334155" stroke-width="1"/>
<text x="475.55555555555554" y="982" text-anchor="middle" font-family="Arial, Helvetica, sans-serif" font-size="11" fill="#475569">10</text>
<line x1="559.4444444444445" y1="962" x2="559.4444444444445" y2="967" stroke="#334155" stroke-width="1"/>
<text x="559.4444444444445" y="982" text-anchor="middle" font-family="Arial, Helvetica, sans-serif" font-size="11" fill="#475569">12</text>
<line x1="643.3333333333333" y1="962" x2="643.3333333333333" y2="967" stroke="#334155" stroke-width="1"/>
<text x="643.3333333333333" y="982" text-anchor="middle" font-family="Arial, Helvetica, sans-serif" font-size="11" fill="#475569">14</text>
<line x1="727.2222222222222" y1="962" x2="727.2222222222222" y2="967" stroke="#334155" stroke-width="1"/>
<text x="727.2222222222222" y="982" text-anchor="middle" font-family="Arial, Helvetica, sans-serif" font-size="11" fill="#475569">16</text>
<line x1="811.1111111111111" y1="962" x2="811.1111111111111" y2="967" stroke="#334155" stroke-width="1"/>
<text x="811.1111111111111" y="982" text-anchor="middle" font-family="Arial, Helvetica, sans-serif" font-size="11" fill="#475569">18</text>
<line x1="895.0" y1="962" x2="895.0" y2="967" stroke="#334155" stroke-width="1"/>
<text x="895.0" y="982" text-anchor="middle" font-family="Arial, Helvetica, sans-serif" font-size="11" fill="#475569">20</text>
<polyline fill="none" stroke="#059669" stroke-width="3" points="140.00,949.10 223.89,941.20 307.78,931.99 391.67,917.30 475.56,897.01 559.44,887.34 643.33,870.92 727.22,845.01 811.11,813.86 895.00,787.90"/>
<circle cx="140.00" cy="949.10" r="4.5" fill="#059669" stroke="#ffffff" stroke-width="1"/>
<circle cx="223.89" cy="941.20" r="4.5" fill="#059669" stroke="#ffffff" stroke-width="1"/>
<circle cx="307.78" cy="931.99" r="4.5" fill="#059669" stroke="#ffffff" stroke-width="1"/>
<circle cx="391.67" cy="917.30" r="4.5" fill="#059669" stroke="#ffffff" stroke-width="1"/>
<circle cx="475.56" cy="897.01" r="4.5" fill="#059669" stroke="#ffffff" stroke-width="1"/>
<circle cx="559.44" cy="887.34" r="4.5" fill="#059669" stroke="#ffffff" stroke-width="1"/>
<circle cx="643.33" cy="870.92" r="4.5" fill="#059669" stroke="#ffffff" stroke-width="1"/>
<circle cx="727.22" cy="845.01" r="4.5" fill="#059669" stroke="#ffffff" stroke-width="1"/>
<circle cx="811.11" cy="813.86" r="4.5" fill="#059669" stroke="#ffffff" stroke-width="1"/>
<circle cx="895.00" cy="787.90" r="4.5" fill="#059669" stroke="#ffffff" stroke-width="1"/>
<rect x="760" y="754" width="10" height="10" fill="#059669"/>
<text x="776" y="763" font-family="Arial, Helvetica, sans-serif" font-size="11" fill="#334155">Mean delay</text>
  <text x="956" y="1142" text-anchor="end" font-family="Arial, Helvetica, sans-serif" font-size="11" fill="#64748b">Generated by csma_ca_sim.py</text>
</svg>
