<svg xmlns="http://www.w3.org/2000/svg" width="980" height="1190" viewBox="0 0 980 1190">
  <defs>
  <linearGradient id="svgBg" x1="0" y1="0" x2="0" y2="1" gradientUnits="objectBoundingBox">
    <stop offset="0%" stop-color="#ffffff"/>
    <stop offset="100%" stop-color="#f5f3ff"/>
  </linearGradient>
  <radialGradient id="topGlow" cx="50%" cy="0%" r="60%">
    <stop offset="0%" stop-color="#6366f1" stop-opacity="0.05"/>
    <stop offset="100%" stop-color="#6366f1" stop-opacity="0"/>
  </radialGradient>
  <linearGradient id="areaGrad_p0_s0" x1="0" y1="145.00" x2="0" y2="318.00" gradientUnits="userSpaceOnUse">
    <stop offset="0%" stop-color="#6366f1" stop-opacity="0.14"/>
    <stop offset="100%" stop-color="#6366f1" stop-opacity="0.0"/>
  </linearGradient>
  <linearGradient id="areaGrad_p1_s0" x1="0" y1="480.00" x2="0" y2="653.00" gradientUnits="userSpaceOnUse">
    <stop offset="0%" stop-color="#a855f7" stop-opacity="0.12"/>
    <stop offset="100%" stop-color="#a855f7" stop-opacity="0.0"/>
  </linearGradient>
  <linearGradient id="areaGrad_p2_s0" x1="0" y1="815.00" x2="0" y2="988.00" gradientUnits="userSpaceOnUse">
    <stop offset="0%" stop-color="#0ea5e9" stop-opacity="0.11"/>
    <stop offset="100%" stop-color="#0ea5e9" stop-opacity="0.0"/>
  </linearGradient>
  </defs>
  <rect width="100%" height="100%" fill="url(#svgBg)"/>
  <rect width="100%" height="100%" fill="url(#topGlow)"/>
  <text x="490.0" y="46" text-anchor="middle"
    font-family="system-ui,'Segoe UI',Arial,sans-serif"
    font-size="22" font-weight="700" fill="#1e1b4b" letter-spacing="0.4">CSMA/CA : impact de la fenêtre de contention minimale</text>
  <text x="490.0" y="68" text-anchor="middle"
    font-family="system-ui,'Segoe UI',Arial,sans-serif"
    font-size="12" fill="#6b7280">Fenêtre de contention minimale (Wmin)</text>
  <rect x="50" y="90" width="880" height="280" rx="14" fill="#ffffff" stroke="rgba(99,102,241,0.18)" stroke-width="1.2" filter="drop-shadow(0 2px 8px rgba(99,102,241,0.08))"/>
<rect x="74" y="90" width="48" height="3" rx="2" fill="rgba(99,102,241,0.55)"/>
<text x="70" y="122" font-family="system-ui,'Segoe UI',Arial,sans-serif" font-size="15" font-weight="700" fill="#1e1b4b" letter-spacing="0.3">Débit</text>
<text x="70" y="140" font-family="system-ui,'Segoe UI',Arial,sans-serif" font-size="10" fill="#6b7280">bits/s</text>
<line x1="145" y1="318.00" x2="900" y2="318.00" stroke="rgba(99,102,241,0.08)" stroke-width="1" stroke-dasharray="4,4"/>
<line x1="145" y1="274.75" x2="900" y2="274.75" stroke="rgba(99,102,241,0.08)" stroke-width="1" stroke-dasharray="4,4"/>
<line x1="145" y1="231.50" x2="900" y2="231.50" stroke="rgba(99,102,241,0.08)" stroke-width="1" stroke-dasharray="4,4"/>
<line x1="145" y1="188.25" x2="900" y2="188.25" stroke="rgba(99,102,241,0.08)" stroke-width="1" stroke-dasharray="4,4"/>
<line x1="145" y1="145.00" x2="900" y2="145.00" stroke="rgba(99,102,241,0.08)" stroke-width="1" stroke-dasharray="4,4"/>
<line x1="145" y1="318" x2="900" y2="318" stroke="#d1d5db" stroke-width="1"/>
<line x1="145" y1="145" x2="145" y2="318" stroke="#d1d5db" stroke-width="1"/>
<text x="137" y="322.00" text-anchor="end" font-family="system-ui,'Segoe UI',Arial,sans-serif" font-size="10" fill="#6b7280">7515120.00</text>
<text x="137" y="278.75" text-anchor="end" font-family="system-ui,'Segoe UI',Arial,sans-serif" font-size="10" fill="#6b7280">8050560.00</text>
<text x="137" y="235.50" text-anchor="end" font-family="system-ui,'Segoe UI',Arial,sans-serif" font-size="10" fill="#6b7280">8586000.00</text>
<text x="137" y="192.25" text-anchor="end" font-family="system-ui,'Segoe UI',Arial,sans-serif" font-size="10" fill="#6b7280">9121440.00</text>
<text x="137" y="149.00" text-anchor="end" font-family="system-ui,'Segoe UI',Arial,sans-serif" font-size="10" fill="#6b7280">9656880.00</text>
<line x1="145.00" y1="318" x2="145.00" y2="322" stroke="#d1d5db" stroke-width="1"/>
<text x="145.00" y="336" text-anchor="middle" font-family="system-ui,'Segoe UI',Arial,sans-serif" font-size="10" fill="#6b7280">3</text>
<line x1="207.92" y1="318" x2="207.92" y2="322" stroke="#d1d5db" stroke-width="1"/>
<text x="207.92" y="336" text-anchor="middle" font-family="system-ui,'Segoe UI',Arial,sans-serif" font-size="10" fill="#6b7280">8</text>
<line x1="270.83" y1="318" x2="270.83" y2="322" stroke="#d1d5db" stroke-width="1"/>
<text x="270.83" y="336" text-anchor="middle" font-family="system-ui,'Segoe UI',Arial,sans-serif" font-size="10" fill="#6b7280">13</text>
<line x1="333.75" y1="318" x2="333.75" y2="322" stroke="#d1d5db" stroke-width="1"/>
<text x="333.75" y="336" text-anchor="middle" font-family="system-ui,'Segoe UI',Arial,sans-serif" font-size="10" fill="#6b7280">18</text>
<line x1="396.67" y1="318" x2="396.67" y2="322" stroke="#d1d5db" stroke-width="1"/>
<text x="396.67" y="336" text-anchor="middle" font-family="system-ui,'Segoe UI',Arial,sans-serif" font-size="10" fill="#6b7280">23</text>
<line x1="459.58" y1="318" x2="459.58" y2="322" stroke="#d1d5db" stroke-width="1"/>
<text x="459.58" y="336" text-anchor="middle" font-family="system-ui,'Segoe UI',Arial,sans-serif" font-size="10" fill="#6b7280">28</text>
<line x1="522.50" y1="318" x2="522.50" y2="322" stroke="#d1d5db" stroke-width="1"/>
<text x="522.50" y="336" text-anchor="middle" font-family="system-ui,'Segoe UI',Arial,sans-serif" font-size="10" fill="#6b7280">33</text>
<line x1="585.42" y1="318" x2="585.42" y2="322" stroke="#d1d5db" stroke-width="1"/>
<text x="585.42" y="336" text-anchor="middle" font-family="system-ui,'Segoe UI',Arial,sans-serif" font-size="10" fill="#6b7280">38</text>
<line x1="648.33" y1="318" x2="648.33" y2="322" stroke="#d1d5db" stroke-width="1"/>
<text x="648.33" y="336" text-anchor="middle" font-family="system-ui,'Segoe UI',Arial,sans-serif" font-size="10" fill="#6b7280">43</text>
<line x1="711.25" y1="318" x2="711.25" y2="322" stroke="#d1d5db" stroke-width="1"/>
<text x="711.25" y="336" text-anchor="middle" font-family="system-ui,'Segoe UI',Arial,sans-serif" font-size="10" fill="#6b7280">48</text>
<line x1="774.17" y1="318" x2="774.17" y2="322" stroke="#d1d5db" stroke-width="1"/>
<text x="774.17" y="336" text-anchor="middle" font-family="system-ui,'Segoe UI',Arial,sans-serif" font-size="10" fill="#6b7280">53</text>
<line x1="837.08" y1="318" x2="837.08" y2="322" stroke="#d1d5db" stroke-width="1"/>
<text x="837.08" y="336" text-anchor="middle" font-family="system-ui,'Segoe UI',Arial,sans-serif" font-size="10" fill="#6b7280">58</text>
<line x1="900.00" y1="318" x2="900.00" y2="322" stroke="#d1d5db" stroke-width="1"/>
<text x="900.00" y="336" text-anchor="middle" font-family="system-ui,'Segoe UI',Arial,sans-serif" font-size="10" fill="#6b7280">63</text>
<path d="M145.00,303.58 C155.49,292.58 186.94,254.33 207.92,237.54 C228.89,220.75 249.86,212.20 270.83,202.84 C291.81,193.48 312.78,186.84 333.75,181.39 C354.72,175.94 375.69,172.77 396.67,170.14 C417.64,167.52 438.61,167.41 459.58,165.62 C480.56,163.83 501.53,159.52 522.50,159.42 C543.47,159.31 564.44,163.80 585.42,164.97 C606.39,166.15 627.36,166.35 648.33,166.46 C669.31,166.57 690.28,165.91 711.25,165.62 C732.22,165.33 753.19,164.06 774.17,164.72 C795.14,165.37 816.11,168.15 837.08,169.56 C858.06,170.97 889.51,172.58 900.00,173.18 L900.00,318.00 L145.00,318.00 Z" fill="url(#areaGrad_p0_s0)" stroke="none"/>
<path d="M145.00,303.58 C155.49,292.58 186.94,254.33 207.92,237.54 C228.89,220.75 249.86,212.20 270.83,202.84 C291.81,193.48 312.78,186.84 333.75,181.39 C354.72,175.94 375.69,172.77 396.67,170.14 C417.64,167.52 438.61,167.41 459.58,165.62 C480.56,163.83 501.53,159.52 522.50,159.42 C543.47,159.31 564.44,163.80 585.42,164.97 C606.39,166.15 627.36,166.35 648.33,166.46 C669.31,166.57 690.28,165.91 711.25,165.62 C732.22,165.33 753.19,164.06 774.17,164.72 C795.14,165.37 816.11,168.15 837.08,169.56 C858.06,170.97 889.51,172.58 900.00,173.18" fill="none" stroke="#6366f1" stroke-width="8" stroke-opacity="0.18" stroke-linecap="round" stroke-linejoin="round"/>
<path d="M145.00,303.58 C155.49,292.58 186.94,254.33 207.92,237.54 C228.89,220.75 249.86,212.20 270.83,202.84 C291.81,193.48 312.78,186.84 333.75,181.39 C354.72,175.94 375.69,172.77 396.67,170.14 C417.64,167.52 438.61,167.41 459.58,165.62 C480.56,163.83 501.53,159.52 522.50,159.42 C543.47,159.31 564.44,163.80 585.42,164.97 C606.39,166.15 627.36,166.35 648.33,166.46 C669.31,166.57 690.28,165.91 711.25,165.62 C732.22,165.33 753.19,164.06 774.17,164.72 C795.14,165.37 816.11,168.15 837.08,169.56 C858.06,170.97 889.51,172.58 900.00,173.18" fill="none" stroke="#6366f1" stroke-width="2.5" stroke-linecap="round" stroke-linejoin="round"/>
<line x1="145.00" y1="301.71" x2="145.00" y2="305.46" stroke="#6366f1" stroke-width="1.2" stroke-opacity="0.45"/>
<line x1="141.00" y1="301.71" x2="149.00" y2="301.71" stroke="#6366f1" stroke-width="1.2" stroke-opacity="0.45"/>
<line x1="141.00" y1="305.46" x2="149.00" y2="305.46" stroke="#6366f1" stroke-width="1.2" stroke-opacity="0.45"/>
<line x1="207.92" y1="234.34" x2="207.92" y2="240.74" stroke="#6366f1" stroke-width="1.2" stroke-opacity="0.45"/>
<line x1="203.92" y1="234.34" x2="211.92" y2="234.34" stroke="#6366f1" stroke-width="1.2" stroke-opacity="0.45"/>
<line x1="203.92" y1="240.74" x2="211.92" y2="240.74" stroke="#6366f1" stroke-width="1.2" stroke-opacity="0.45"/>
<line x1="270.83" y1="199.22" x2="270.83" y2="206.46" stroke="#6366f1" stroke-width="1.2" stroke-opacity="0.45"/>
<line x1="266.83" y1="199.22" x2="274.83" y2="199.22" stroke="#6366f1" stroke-width="1.2" stroke-opacity="0.45"/>
<line x1="266.83" y1="206.46" x2="274.83" y2="206.46" stroke="#6366f1" stroke-width="1.2" stroke-opacity="0.45"/>
<line x1="333.75" y1="179.68" x2="333.75" y2="183.10" stroke="#6366f1" stroke-width="1.2" stroke-opacity="0.45"/>
<line x1="329.75" y1="179.68" x2="337.75" y2="179.68" stroke="#6366f1" stroke-width="1.2" stroke-opacity="0.45"/>
<line x1="329.75" y1="183.10" x2="337.75" y2="183.10" stroke="#6366f1" stroke-width="1.2" stroke-opacity="0.45"/>
<line x1="396.67" y1="164.89" x2="396.67" y2="175.40" stroke="#6366f1" stroke-width="1.2" stroke-opacity="0.45"/>
<line x1="392.67" y1="164.89" x2="400.67" y2="164.89" stroke="#6366f1" stroke-width="1.2" stroke-opacity="0.45"/>
<line x1="392.67" y1="175.40" x2="400.67" y2="175.40" stroke="#6366f1" stroke-width="1.2" stroke-opacity="0.45"/>
<line x1="459.58" y1="162.83" x2="459.58" y2="168.41" stroke="#6366f1" stroke-width="1.2" stroke-opacity="0.45"/>
<line x1="455.58" y1="162.83" x2="463.58" y2="162.83" stroke="#6366f1" stroke-width="1.2" stroke-opacity="0.45"/>
<line x1="455.58" y1="168.41" x2="463.58" y2="168.41" stroke="#6366f1" stroke-width="1.2" stroke-opacity="0.45"/>
<line x1="522.50" y1="156.80" x2="522.50" y2="162.03" stroke="#6366f1" stroke-width="1.2" stroke-opacity="0.45"/>
<line x1="518.50" y1="156.80" x2="526.50" y2="156.80" stroke="#6366f1" stroke-width="1.2" stroke-opacity="0.45"/>
<line x1="518.50" y1="162.03" x2="526.50" y2="162.03" stroke="#6366f1" stroke-width="1.2" stroke-opacity="0.45"/>
<line x1="585.42" y1="161.02" x2="585.42" y2="168.93" stroke="#6366f1" stroke-width="1.2" stroke-opacity="0.45"/>
<line x1="581.42" y1="161.02" x2="589.42" y2="161.02" stroke="#6366f1" stroke-width="1.2" stroke-opacity="0.45"/>
<line x1="581.42" y1="168.93" x2="589.42" y2="168.93" stroke="#6366f1" stroke-width="1.2" stroke-opacity="0.45"/>
<line x1="648.33" y1="162.42" x2="648.33" y2="170.50" stroke="#6366f1" stroke-width="1.2" stroke-opacity="0.45"/>
<line x1="644.33" y1="162.42" x2="652.33" y2="162.42" stroke="#6366f1" stroke-width="1.2" stroke-opacity="0.45"/>
<line x1="644.33" y1="170.50" x2="652.33" y2="170.50" stroke="#6366f1" stroke-width="1.2" stroke-opacity="0.45"/>
<line x1="711.25" y1="164.00" x2="711.25" y2="167.24" stroke="#6366f1" stroke-width="1.2" stroke-opacity="0.45"/>
<line x1="707.25" y1="164.00" x2="715.25" y2="164.00" stroke="#6366f1" stroke-width="1.2" stroke-opacity="0.45"/>
<line x1="707.25" y1="167.24" x2="715.25" y2="167.24" stroke="#6366f1" stroke-width="1.2" stroke-opacity="0.45"/>
<line x1="774.17" y1="162.50" x2="774.17" y2="166.93" stroke="#6366f1" stroke-width="1.2" stroke-opacity="0.45"/>
<line x1="770.17" y1="162.50" x2="778.17" y2="162.50" stroke="#6366f1" stroke-width="1.2" stroke-opacity="0.45"/>
<line x1="770.17" y1="166.93" x2="778.17" y2="166.93" stroke="#6366f1" stroke-width="1.2" stroke-opacity="0.45"/>
<line x1="837.08" y1="166.55" x2="837.08" y2="172.57" stroke="#6366f1" stroke-width="1.2" stroke-opacity="0.45"/>
<line x1="833.08" y1="166.55" x2="841.08" y2="166.55" stroke="#6366f1" stroke-width="1.2" stroke-opacity="0.45"/>
<line x1="833.08" y1="172.57" x2="841.08" y2="172.57" stroke="#6366f1" stroke-width="1.2" stroke-opacity="0.45"/>
<line x1="900.00" y1="170.45" x2="900.00" y2="175.91" stroke="#6366f1" stroke-width="1.2" stroke-opacity="0.45"/>
<line x1="896.00" y1="170.45" x2="904.00" y2="170.45" stroke="#6366f1" stroke-width="1.2" stroke-opacity="0.45"/>
<line x1="896.00" y1="175.91" x2="904.00" y2="175.91" stroke="#6366f1" stroke-width="1.2" stroke-opacity="0.45"/>
<circle cx="145.00" cy="303.58" r="8" fill="#6366f1" fill-opacity="0.12" stroke="none"/>
<circle cx="145.00" cy="303.58" r="4" fill="#6366f1" stroke="#ffffff" stroke-width="1.5"/>
<circle cx="207.92" cy="237.54" r="8" fill="#6366f1" fill-opacity="0.12" stroke="none"/>
<circle cx="207.92" cy="237.54" r="4" fill="#6366f1" stroke="#ffffff" stroke-width="1.5"/>
<circle cx="270.83" cy="202.84" r="8" fill="#6366f1" fill-opacity="0.12" stroke="none"/>
<circle cx="270.83" cy="202.84" r="4" fill="#6366f1" stroke="#ffffff" stroke-width="1.5"/>
<circle cx="333.75" cy="181.39" r="8" fill="#6366f1" fill-opacity="0.12" stroke="none"/>
<circle cx="333.75" cy="181.39" r="4" fill="#6366f1" stroke="#ffffff" stroke-width="1.5"/>
<circle cx="396.67" cy="170.14" r="8" fill="#6366f1" fill-opacity="0.12" stroke="none"/>
<circle cx="396.67" cy="170.14" r="4" fill="#6366f1" stroke="#ffffff" stroke-width="1.5"/>
<circle cx="459.58" cy="165.62" r="8" fill="#6366f1" fill-opacity="0.12" stroke="none"/>
<circle cx="459.58" cy="165.62" r="4" fill="#6366f1" stroke="#ffffff" stroke-width="1.5"/>
<circle cx="522.50" cy="159.42" r="8" fill="#6366f1" fill-opacity="0.12" stroke="none"/>
<circle cx="522.50" cy="159.42" r="4" fill="#6366f1" stroke="#ffffff" stroke-width="1.5"/>
<circle cx="585.42" cy="164.97" r="8" fill="#6366f1" fill-opacity="0.12" stroke="none"/>
<circle cx="585.42" cy="164.97" r="4" fill="#6366f1" stroke="#ffffff" stroke-width="1.5"/>
<circle cx="648.33" cy="166.46" r="8" fill="#6366f1" fill-opacity="0.12" stroke="none"/>
<circle cx="648.33" cy="166.46" r="4" fill="#6366f1" stroke="#ffffff" stroke-width="1.5"/>
<circle cx="711.25" cy="165.62" r="8" fill="#6366f1" fill-opacity="0.12" stroke="none"/>
<circle cx="711.25" cy="165.62" r="4" fill="#6366f1" stroke="#ffffff" stroke-width="1.5"/>
<circle cx="774.17" cy="164.72" r="8" fill="#6366f1" fill-opacity="0.12" stroke="none"/>
<circle cx="774.17" cy="164.72" r="4" fill="#6366f1" stroke="#ffffff" stroke-width="1.5"/>
<circle cx="837.08" cy="169.56" r="8" fill="#6366f1" fill-opacity="0.12" stroke="none"/>
<circle cx="837.08" cy="169.56" r="4" fill="#6366f1" stroke="#ffffff" stroke-width="1.5"/>
<circle cx="900.00" cy="173.18" r="8" fill="#6366f1" fill-opacity="0.12" stroke="none"/>
<circle cx="900.00" cy="173.18" r="4" fill="#6366f1" stroke="#ffffff" stroke-width="1.5"/>
<rect x="765" y="113" width="22" height="4" rx="2" fill="#6366f1" fill-opacity="0.85"/>
<text x="793" y="120" font-family="system-ui,'Segoe UI',Arial,sans-serif" font-size="11" fill="#374151">Débit (bits/s)</text>
  <rect x="50" y="425" width="880" height="280" rx="14" fill="#ffffff" stroke="rgba(99,102,241,0.18)" stroke-width="1.2" filter="drop-shadow(0 2px 8px rgba(99,102,241,0.08))"/>
<rect x="74" y="425" width="48" height="3" rx="2" fill="rgba(99,102,241,0.55)"/>
<text x="70" y="457" font-family="system-ui,'Segoe UI',Arial,sans-serif" font-size="15" font-weight="700" fill="#1e1b4b" letter-spacing="0.3">Taux de collision</text>
<text x="70" y="475" font-family="system-ui,'Segoe UI',Arial,sans-serif" font-size="10" fill="#6b7280">%</text>
<line x1="145" y1="653.00" x2="900" y2="653.00" stroke="rgba(99,102,241,0.08)" stroke-width="1" stroke-dasharray="4,4"/>
<line x1="145" y1="609.75" x2="900" y2="609.75" stroke="rgba(99,102,241,0.08)" stroke-width="1" stroke-dasharray="4,4"/>
<line x1="145" y1="566.50" x2="900" y2="566.50" stroke="rgba(99,102,241,0.08)" stroke-width="1" stroke-dasharray="4,4"/>
<line x1="145" y1="523.25" x2="900" y2="523.25" stroke="rgba(99,102,241,0.08)" stroke-width="1" stroke-dasharray="4,4"/>
<line x1="145" y1="480.00" x2="900" y2="480.00" stroke="rgba(99,102,241,0.08)" stroke-width="1" stroke-dasharray="4,4"/>
<line x1="145" y1="653" x2="900" y2="653" stroke="#d1d5db" stroke-width="1"/>
<line x1="145" y1="480" x2="145" y2="653" stroke="#d1d5db" stroke-width="1"/>
<text x="137" y="657.00" text-anchor="end" font-family="system-ui,'Segoe UI',Arial,sans-serif" font-size="10" fill="#6b7280">6.81</text>
<text x="137" y="613.75" text-anchor="end" font-family="system-ui,'Segoe UI',Arial,sans-serif" font-size="10" fill="#6b7280">18.67</text>
<text x="137" y="570.50" text-anchor="end" font-family="system-ui,'Segoe UI',Arial,sans-serif" font-size="10" fill="#6b7280">30.54</text>
<text x="137" y="527.25" text-anchor="end" font-family="system-ui,'Segoe UI',Arial,sans-serif" font-size="10" fill="#6b7280">42.40</text>
<text x="137" y="484.00" text-anchor="end" font-family="system-ui,'Segoe UI',Arial,sans-serif" font-size="10" fill="#6b7280">54.26</text>
<line x1="145.00" y1="653" x2="145.00" y2="657" stroke="#d1d5db" stroke-width="1"/>
<text x="145.00" y="671" text-anchor="middle" font-family="system-ui,'Segoe UI',Arial,sans-serif" font-size="10" fill="#6b7280">3</text>
<line x1="207.92" y1="653" x2="207.92" y2="657" stroke="#d1d5db" stroke-width="1"/>
<text x="207.92" y="671" text-anchor="middle" font-family="system-ui,'Segoe UI',Arial,sans-serif" font-size="10" fill="#6b7280">8</text>
<line x1="270.83" y1="653" x2="270.83" y2="657" stroke="#d1d5db" stroke-width="1"/>
<text x="270.83" y="671" text-anchor="middle" font-family="system-ui,'Segoe UI',Arial,sans-serif" font-size="10" fill="#6b7280">13</text>
<line x1="333.75" y1="653" x2="333.75" y2="657" stroke="#d1d5db" stroke-width="1"/>
<text x="333.75" y="671" text-anchor="middle" font-family="system-ui,'Segoe UI',Arial,sans-serif" font-size="10" fill="#6b7280">18</text>
<line x1="396.67" y1="653" x2="396.67" y2="657" stroke="#d1d5db" stroke-width="1"/>
<text x="396.67" y="671" text-anchor="middle" font-family="system-ui,'Segoe UI',Arial,sans-serif" font-size="10" fill="#6b7280">23</text>
<line x1="459.58" y1="653" x2="459.58" y2="657" stroke="#d1d5db" stroke-width="1"/>
<text x="459.58" y="671" text-anchor="middle" font-family="system-ui,'Segoe UI',Arial,sans-serif" font-size="10" fill="#6b7280">28</text>
<line x1="522.50" y1="653" x2="522.50" y2="657" stroke="#d1d5db" stroke-width="1"/>
<text x="522.50" y="671" text-anchor="middle" font-family="system-ui,'Segoe UI',Arial,sans-serif" font-size="10" fill="#6b7280">33</text>
<line x1="585.42" y1="653" x2="585.42" y2="657" stroke="#d1d5db" stroke-width="1"/>
<text x="585.42" y="671" text-anchor="middle" font-family="system-ui,'Segoe UI',Arial,sans-serif" font-size="10" fill="#6b7280">38</text>
<line x1="648.33" y1="653" x2="648.33" y2="657" stroke="#d1d5db" stroke-width="1"/>
<text x="648.33" y="671" text-anchor="middle" font-family="system-ui,'Segoe UI',Arial,sans-serif" font-size="10" fill="#6b7280">43</text>
<line x1="711.25" y1="653" x2="711.25" y2="657" stroke="#d1d5db" stroke-width="1"/>
<text x="711.25" y="671" text-anchor="middle" font-family="system-ui,'Segoe UI',Arial,sans-serif" font-size="10" fill="#6b7280">48</text>
<line x1="774.17" y1="653" x2="774.17" y2="657" stroke="#d1d5db" stroke-width="1"/>
<text x="774.17" y="671" text-anchor="middle" font-family="system-ui,'Segoe UI',Arial,sans-serif" font-size="10" fill="#6b7280">53</text>
<line x1="837.08" y1="653" x2="837.08" y2="657" stroke="#d1d5db" stroke-width="1"/>
<text x="837.08" y="671" text-anchor="middle" font-family="system-ui,'Segoe UI',Arial,sans-serif" font-size="10" fill="#6b7280">58</text>
<line x1="900.00" y1="653" x2="900.00" y2="657" stroke="#d1d5db" stroke-width="1"/>
<text x="900.00" y="671" text-anchor="middle" font-family="system-ui,'Segoe UI',Arial,sans-serif" font-size="10" fill="#6b7280">63</text>
<path d="M145.00,494.42 C155.49,501.84 186.94,527.09 207.92,538.97 C228.89,550.85 249.86,557.54 270.83,565.69 C291.81,573.84 312.78,582.25 333.75,587.87 C354.72,593.49 375.69,595.56 396.67,599.42 C417.64,603.28 438.61,607.68 459.58,611.04 C480.56,614.40 501.53,617.36 522.50,619.55 C543.47,621.75 564.44,623.59 585.42,624.20 C606.39,624.82 627.36,622.36 648.33,623.25 C669.31,624.14 690.28,627.61 711.25,629.53 C732.22,631.45 753.19,633.27 774.17,634.78 C795.14,636.29 816.11,638.45 837.08,638.58 C858.06,638.72 889.51,636.09 900.00,635.59 L900.00,653.00 L145.00,653.00 Z" fill="url(#areaGrad_p1_s0)" stroke="none"/>
<path d="M145.00,494.42 C155.49,501.84 186.94,527.09 207.92,538.97 C228.89,550.85 249.86,557.54 270.83,565.69 C291.81,573.84 312.78,582.25 333.75,587.87 C354.72,593.49 375.69,595.56 396.67,599.42 C417.64,603.28 438.61,607.68 459.58,611.04 C480.56,614.40 501.53,617.36 522.50,619.55 C543.47,621.75 564.44,623.59 585.42,624.20 C606.39,624.82 627.36,622.36 648.33,623.25 C669.31,624.14 690.28,627.61 711.25,629.53 C732.22,631.45 753.19,633.27 774.17,634.78 C795.14,636.29 816.11,638.45 837.08,638.58 C858.06,638.72 889.51,636.09 900.00,635.59" fill="none" stroke="#a855f7" stroke-width="8" stroke-opacity="0.18" stroke-linecap="round" stroke-linejoin="round"/>
<path d="M145.00,494.42 C155.49,501.84 186.94,527.09 207.92,538.97 C228.89,550.85 249.86,557.54 270.83,565.69 C291.81,573.84 312.78,582.25 333.75,587.87 C354.72,593.49 375.69,595.56 396.67,599.42 C417.64,603.28 438.61,607.68 459.58,611.04 C480.56,614.40 501.53,617.36 522.50,619.55 C543.47,621.75 564.44,623.59 585.42,624.20 C606.39,624.82 627.36,622.36 648.33,623.25 C669.31,624.14 690.28,627.61 711.25,629.53 C732.22,631.45 753.19,633.27 774.17,634.78 C795.14,636.29 816.11,638.45 837.08,638.58 C858.06,638.72 889.51,636.09 900.00,635.59" fill="none" stroke="#a855f7" stroke-width="2.5" stroke-linecap="round" stroke-linejoin="round"/>
<line x1="145.00" y1="493.27" x2="145.00" y2="495.57" stroke="#a855f7" stroke-width="1.2" stroke-opacity="0.45"/>
<line x1="141.00" y1="493.27" x2="149.00" y2="493.27" stroke="#a855f7" stroke-width="1.2" stroke-opacity="0.45"/>
<line x1="141.00" y1="495.57" x2="149.00" y2="495.57" stroke="#a855f7" stroke-width="1.2" stroke-opacity="0.45"/>
<line x1="207.92" y1="538.40" x2="207.92" y2="539.54" stroke="#a855f7" stroke-width="1.2" stroke-opacity="0.45"/>
<line x1="203.92" y1="538.40" x2="211.92" y2="538.40" stroke="#a855f7" stroke-width="1.2" stroke-opacity="0.45"/>
<line x1="203.92" y1="539.54" x2="211.92" y2="539.54" stroke="#a855f7" stroke-width="1.2" stroke-opacity="0.45"/>
<line x1="270.83" y1="562.06" x2="270.83" y2="569.32" stroke="#a855f7" stroke-width="1.2" stroke-opacity="0.45"/>
<line x1="266.83" y1="562.06" x2="274.83" y2="562.06" stroke="#a855f7" stroke-width="1.2" stroke-opacity="0.45"/>
<line x1="266.83" y1="569.32" x2="274.83" y2="569.32" stroke="#a855f7" stroke-width="1.2" stroke-opacity="0.45"/>
<line x1="333.75" y1="585.49" x2="333.75" y2="590.24" stroke="#a855f7" stroke-width="1.2" stroke-opacity="0.45"/>
<line x1="329.75" y1="585.49" x2="337.75" y2="585.49" stroke="#a855f7" stroke-width="1.2" stroke-opacity="0.45"/>
<line x1="329.75" y1="590.24" x2="337.75" y2="590.24" stroke="#a855f7" stroke-width="1.2" stroke-opacity="0.45"/>
<line x1="396.67" y1="595.02" x2="396.67" y2="603.82" stroke="#a855f7" stroke-width="1.2" stroke-opacity="0.45"/>
<line x1="392.67" y1="595.02" x2="400.67" y2="595.02" stroke="#a855f7" stroke-width="1.2" stroke-opacity="0.45"/>
<line x1="392.67" y1="603.82" x2="400.67" y2="603.82" stroke="#a855f7" stroke-width="1.2" stroke-opacity="0.45"/>
<line x1="459.58" y1="608.01" x2="459.58" y2="614.07" stroke="#a855f7" stroke-width="1.2" stroke-opacity="0.45"/>
<line x1="455.58" y1="608.01" x2="463.58" y2="608.01" stroke="#a855f7" stroke-width="1.2" stroke-opacity="0.45"/>
<line x1="455.58" y1="614.07" x2="463.58" y2="614.07" stroke="#a855f7" stroke-width="1.2" stroke-opacity="0.45"/>
<line x1="522.50" y1="615.66" x2="522.50" y2="623.45" stroke="#a855f7" stroke-width="1.2" stroke-opacity="0.45"/>
<line x1="518.50" y1="615.66" x2="526.50" y2="615.66" stroke="#a855f7" stroke-width="1.2" stroke-opacity="0.45"/>
<line x1="518.50" y1="623.45" x2="526.50" y2="623.45" stroke="#a855f7" stroke-width="1.2" stroke-opacity="0.45"/>
<line x1="585.42" y1="620.39" x2="585.42" y2="628.01" stroke="#a855f7" stroke-width="1.2" stroke-opacity="0.45"/>
<line x1="581.42" y1="620.39" x2="589.42" y2="620.39" stroke="#a855f7" stroke-width="1.2" stroke-opacity="0.45"/>
<line x1="581.42" y1="628.01" x2="589.42" y2="628.01" stroke="#a855f7" stroke-width="1.2" stroke-opacity="0.45"/>
<line x1="648.33" y1="622.31" x2="648.33" y2="624.19" stroke="#a855f7" stroke-width="1.2" stroke-opacity="0.45"/>
<line x1="644.33" y1="622.31" x2="652.33" y2="622.31" stroke="#a855f7" stroke-width="1.2" stroke-opacity="0.45"/>
<line x1="644.33" y1="624.19" x2="652.33" y2="624.19" stroke="#a855f7" stroke-width="1.2" stroke-opacity="0.45"/>
<line x1="711.25" y1="628.40" x2="711.25" y2="630.66" stroke="#a855f7" stroke-width="1.2" stroke-opacity="0.45"/>
<line x1="707.25" y1="628.40" x2="715.25" y2="628.40" stroke="#a855f7" stroke-width="1.2" stroke-opacity="0.45"/>
<line x1="707.25" y1="630.66" x2="715.25" y2="630.66" stroke="#a855f7" stroke-width="1.2" stroke-opacity="0.45"/>
<line x1="774.17" y1="632.73" x2="774.17" y2="636.83" stroke="#a855f7" stroke-width="1.2" stroke-opacity="0.45"/>
<line x1="770.17" y1="632.73" x2="778.17" y2="632.73" stroke="#a855f7" stroke-width="1.2" stroke-opacity="0.45"/>
<line x1="770.17" y1="636.83" x2="778.17" y2="636.83" stroke="#a855f7" stroke-width="1.2" stroke-opacity="0.45"/>
<line x1="837.08" y1="636.20" x2="837.08" y2="640.97" stroke="#a855f7" stroke-width="1.2" stroke-opacity="0.45"/>
<line x1="833.08" y1="636.20" x2="841.08" y2="636.20" stroke="#a855f7" stroke-width="1.2" stroke-opacity="0.45"/>
<line x1="833.08" y1="640.97" x2="841.08" y2="640.97" stroke="#a855f7" stroke-width="1.2" stroke-opacity="0.45"/>
<line x1="900.00" y1="634.39" x2="900.00" y2="636.79" stroke="#a855f7" stroke-width="1.2" stroke-opacity="0.45"/>
<line x1="896.00" y1="634.39" x2="904.00" y2="634.39" stroke="#a855f7" stroke-width="1.2" stroke-opacity="0.45"/>
<line x1="896.00" y1="636.79" x2="904.00" y2="636.79" stroke="#a855f7" stroke-width="1.2" stroke-opacity="0.45"/>
<circle cx="145.00" cy="494.42" r="8" fill="#a855f7" fill-opacity="0.12" stroke="none"/>
<circle cx="145.00" cy="494.42" r="4" fill="#a855f7" stroke="#ffffff" stroke-width="1.5"/>
<circle cx="207.92" cy="538.97" r="8" fill="#a855f7" fill-opacity="0.12" stroke="none"/>
<circle cx="207.92" cy="538.97" r="4" fill="#a855f7" stroke="#ffffff" stroke-width="1.5"/>
<circle cx="270.83" cy="565.69" r="8" fill="#a855f7" fill-opacity="0.12" stroke="none"/>
<circle cx="270.83" cy="565.69" r="4" fill="#a855f7" stroke="#ffffff" stroke-width="1.5"/>
<circle cx="333.75" cy="587.87" r="8" fill="#a855f7" fill-opacity="0.12" stroke="none"/>
<circle cx="333.75" cy="587.87" r="4" fill="#a855f7" stroke="#ffffff" stroke-width="1.5"/>
<circle cx="396.67" cy="599.42" r="8" fill="#a855f7" fill-opacity="0.12" stroke="none"/>
<circle cx="396.67" cy="599.42" r="4" fill="#a855f7" stroke="#ffffff" stroke-width="1.5"/>
<circle cx="459.58" cy="611.04" r="8" fill="#a855f7" fill-opacity="0.12" stroke="none"/>
<circle cx="459.58" cy="611.04" r="4" fill="#a855f7" stroke="#ffffff" stroke-width="1.5"/>
<circle cx="522.50" cy="619.55" r="8" fill="#a855f7" fill-opacity="0.12" stroke="none"/>
<circle cx="522.50" cy="619.55" r="4" fill="#a855f7" stroke="#ffffff" stroke-width="1.5"/>
<circle cx="585.42" cy="624.20" r="8" fill="#a855f7" fill-opacity="0.12" stroke="none"/>
<circle cx="585.42" cy="624.20" r="4" fill="#a855f7" stroke="#ffffff" stroke-width="1.5"/>
<circle cx="648.33" cy="623.25" r="8" fill="#a855f7" fill-opacity="0.12" stroke="none"/>
<circle cx="648.33" cy="623.25" r="4" fill="#a855f7" stroke="#ffffff" stroke-width="1.5"/>
<circle cx="711.25" cy="629.53" r="8" fill="#a855f7" fill-opacity="0.12" stroke="none"/>
<circle cx="711.25" cy="629.53" r="4" fill="#a855f7" stroke="#ffffff" stroke-width="1.5"/>
<circle cx="774.17" cy="634.78" r="8" fill="#a855f7" fill-opacity="0.12" stroke="none"/>
<circle cx="774.17" cy="634.78" r="4" fill="#a855f7" stroke="#ffffff" stroke-width="1.5"/>
<circle cx="837.08" cy="638.58" r="8" fill="#a855f7" fill-opacity="0.12" stroke="none"/>
<circle cx="837.08" cy="638.58" r="4" fill="#a855f7" stroke="#ffffff" stroke-width="1.5"/>
<circle cx="900.00" cy="635.59" r="8" fill="#a855f7" fill-opacity="0.12" stroke="none"/>
<circle cx="900.00" cy="635.59" r="4" fill="#a855f7" stroke="#ffffff" stroke-width="1.5"/>
<rect x="765" y="448" width="22" height="4" rx="2" fill="#a855f7" fill-opacity="0.85"/>
<text x="793" y="455" font-family="system-ui,'Segoe UI',Arial,sans-serif" font-size="11" fill="#374151">Taux de collision (%)</text>
  <rect x="50" y="760" width="880" height="280" rx="14" fill="#ffffff" stroke="rgba(99,102,241,0.18)" stroke-width="1.2" filter="drop-shadow(0 2px 8px rgba(99,102,241,0.08))"/>
<rect x="74" y="760" width="48" height="3" rx="2" fill="rgba(99,102,241,0.55)"/>
<text x="70" y="792" font-family="system-ui,'Segoe UI',Arial,sans-serif" font-size="15" font-weight="700" fill="#1e1b4b" letter-spacing="0.3">Délai moyen</text>
<text x="70" y="810" font-family="system-ui,'Segoe UI',Arial,sans-serif" font-size="10" fill="#6b7280">ms</text>
<line x1="145" y1="988.00" x2="900" y2="988.00" stroke="rgba(99,102,241,0.08)" stroke-width="1" stroke-dasharray="4,4"/>
<line x1="145" y1="944.75" x2="900" y2="944.75" stroke="rgba(99,102,241,0.08)" stroke-width="1" stroke-dasharray="4,4"/>
<line x1="145" y1="901.50" x2="900" y2="901.50" stroke="rgba(99,102,241,0.08)" stroke-width="1" stroke-dasharray="4,4"/>
<line x1="145" y1="858.25" x2="900" y2="858.25" stroke="rgba(99,102,241,0.08)" stroke-width="1" stroke-dasharray="4,4"/>
<line x1="145" y1="815.00" x2="900" y2="815.00" stroke="rgba(99,102,241,0.08)" stroke-width="1" stroke-dasharray="4,4"/>
<line x1="145" y1="988" x2="900" y2="988" stroke="#d1d5db" stroke-width="1"/>
<line x1="145" y1="815" x2="145" y2="988" stroke="#d1d5db" stroke-width="1"/>
<text x="137" y="992.00" text-anchor="end" font-family="system-ui,'Segoe UI',Arial,sans-serif" font-size="10" fill="#6b7280">6.06</text>
<text x="137" y="948.75" text-anchor="end" font-family="system-ui,'Segoe UI',Arial,sans-serif" font-size="10" fill="#6b7280">7.36</text>
<text x="137" y="905.50" text-anchor="end" font-family="system-ui,'Segoe UI',Arial,sans-serif" font-size="10" fill="#6b7280">8.67</text>
<text x="137" y="862.25" text-anchor="end" font-family="system-ui,'Segoe UI',Arial,sans-serif" font-size="10" fill="#6b7280">9.97</text>
<text x="137" y="819.00" text-anchor="end" font-family="system-ui,'Segoe UI',Arial,sans-serif" font-size="10" fill="#6b7280">11.28</text>
<line x1="145.00" y1="988" x2="145.00" y2="992" stroke="#d1d5db" stroke-width="1"/>
<text x="145.00" y="1006" text-anchor="middle" font-family="system-ui,'Segoe UI',Arial,sans-serif" font-size="10" fill="#6b7280">3</text>
<line x1="207.92" y1="988" x2="207.92" y2="992" stroke="#d1d5db" stroke-width="1"/>
<text x="207.92" y="1006" text-anchor="middle" font-family="system-ui,'Segoe UI',Arial,sans-serif" font-size="10" fill="#6b7280">8</text>
<line x1="270.83" y1="988" x2="270.83" y2="992" stroke="#d1d5db" stroke-width="1"/>
<text x="270.83" y="1006" text-anchor="middle" font-family="system-ui,'Segoe UI',Arial,sans-serif" font-size="10" fill="#6b7280">13</text>
<line x1="333.75" y1="988" x2="333.75" y2="992" stroke="#d1d5db" stroke-width="1"/>
<text x="333.75" y="1006" text-anchor="middle" font-family="system-ui,'Segoe UI',Arial,sans-serif" font-size="10" fill="#6b7280">18</text>
<line x1="396.67" y1="988" x2="396.67" y2="992" stroke="#d1d5db" stroke-width="1"/>
<text x="396.67" y="1006" text-anchor="middle" font-family="system-ui,'Segoe UI',Arial,sans-serif" font-size="10" fill="#6b7280">23</text>
<line x1="459.58" y1="988" x2="459.58" y2="992" stroke="#d1d5db" stroke-width="1"/>
<text x="459.58" y="1006" text-anchor="middle" font-family="system-ui,'Segoe UI',Arial,sans-serif" font-size="10" fill="#6b7280">28</text>
<line x1="522.50" y1="988" x2="522.50" y2="992" stroke="#d1d5db" stroke-width="1"/>
<text x="522.50" y="1006" text-anchor="middle" font-family="system-ui,'Segoe UI',Arial,sans-serif" font-size="10" fill="#6b7280">33</text>
<line x1="585.42" y1="988" x2="585.42" y2="992" stroke="#d1d5db" stroke-width="1"/>
<text x="585.42" y="1006" text-anchor="middle" font-family="system-ui,'Segoe UI',Arial,sans-serif" font-size="10" fill="#6b7280">38</text>
<line x1="648.33" y1="988" x2="648.33" y2="992" stroke="#d1d5db" stroke-width="1"/>
<text x="648.33" y="1006" text-anchor="middle" font-family="system-ui,'Segoe UI',Arial,sans-serif" font-size="10" fill="#6b7280">43</text>
<line x1="711.25" y1="988" x2="711.25" y2="992" stroke="#d1d5db" stroke-width="1"/>
<text x="711.25" y="1006" text-anchor="middle" font-family="system-ui,'Segoe UI',Arial,sans-serif" font-size="10" fill="#6b7280">48</text>
<line x1="774.17" y1="988" x2="774.17" y2="992" stroke="#d1d5db" stroke-width="1"/>
<text x="774.17" y="1006" text-anchor="middle" font-family="system-ui,'Segoe UI',Arial,sans-serif" font-size="10" fill="#6b7280">53</text>
<line x1="837.08" y1="988" x2="837.08" y2="992" stroke="#d1d5db" stroke-width="1"/>
<text x="837.08" y="1006" text-anchor="middle" font-family="system-ui,'Segoe UI',Arial,sans-serif" font-size="10" fill="#6b7280">58</text>
<line x1="900.00" y1="988" x2="900.00" y2="992" stroke="#d1d5db" stroke-width="1"/>
<text x="900.00" y="1006" text-anchor="middle" font-family="system-ui,'Segoe UI',Arial,sans-serif" font-size="10" fill="#6b7280">63</text>
<path d="M145.00,829.42 C155.49,840.28 186.94,877.26 207.92,894.58 C228.89,911.89 249.86,922.67 270.83,933.31 C291.81,943.95 312.78,953.75 333.75,958.41 C354.72,963.08 375.69,959.57 396.67,961.30 C417.64,963.03 438.61,967.31 459.58,968.79 C480.56,970.26 501.53,969.35 522.50,970.15 C543.47,970.95 564.44,974.91 585.42,973.58 C606.39,972.26 627.36,963.43 648.33,962.21 C669.31,960.98 690.28,965.89 711.25,966.22 C732.22,966.56 753.19,964.60 774.17,964.24 C795.14,963.88 816.11,965.66 837.08,964.07 C858.06,962.48 889.51,956.27 900.00,954.71 L900.00,988.00 L145.00,988.00 Z" fill="url(#areaGrad_p2_s0)" stroke="none"/>
<path d="M145.00,829.42 C155.49,840.28 186.94,877.26 207.92,894.58 C228.89,911.89 249.86,922.67 270.83,933.31 C291.81,943.95 312.78,953.75 333.75,958.41 C354.72,963.08 375.69,959.57 396.67,961.30 C417.64,963.03 438.61,967.31 459.58,968.79 C480.56,970.26 501.53,969.35 522.50,970.15 C543.47,970.95 564.44,974.91 585.42,973.58 C606.39,972.26 627.36,963.43 648.33,962.21 C669.31,960.98 690.28,965.89 711.25,966.22 C732.22,966.56 753.19,964.60 774.17,964.24 C795.14,963.88 816.11,965.66 837.08,964.07 C858.06,962.48 889.51,956.27 900.00,954.71" fill="none" stroke="#0ea5e9" stroke-width="8" stroke-opacity="0.18" stroke-linecap="round" stroke-linejoin="round"/>
<path d="M145.00,829.42 C155.49,840.28 186.94,877.26 207.92,894.58 C228.89,911.89 249.86,922.67 270.83,933.31 C291.81,943.95 312.78,953.75 333.75,958.41 C354.72,963.08 375.69,959.57 396.67,961.30 C417.64,963.03 438.61,967.31 459.58,968.79 C480.56,970.26 501.53,969.35 522.50,970.15 C543.47,970.95 564.44,974.91 585.42,973.58 C606.39,972.26 627.36,963.43 648.33,962.21 C669.31,960.98 690.28,965.89 711.25,966.22 C732.22,966.56 753.19,964.60 774.17,964.24 C795.14,963.88 816.11,965.66 837.08,964.07 C858.06,962.48 889.51,956.27 900.00,954.71" fill="none" stroke="#0ea5e9" stroke-width="2.5" stroke-linecap="round" stroke-linejoin="round"/>
<line x1="145.00" y1="825.50" x2="145.00" y2="833.33" stroke="#0ea5e9" stroke-width="1.2" stroke-opacity="0.45"/>
<line x1="141.00" y1="825.50" x2="149.00" y2="825.50" stroke="#0ea5e9" stroke-width="1.2" stroke-opacity="0.45"/>
<line x1="141.00" y1="833.33" x2="149.00" y2="833.33" stroke="#0ea5e9" stroke-width="1.2" stroke-opacity="0.45"/>
<line x1="207.92" y1="892.84" x2="207.92" y2="896.32" stroke="#0ea5e9" stroke-width="1.2" stroke-opacity="0.45"/>
<line x1="203.92" y1="892.84" x2="211.92" y2="892.84" stroke="#0ea5e9" stroke-width="1.2" stroke-opacity="0.45"/>
<line x1="203.92" y1="896.32" x2="211.92" y2="896.32" stroke="#0ea5e9" stroke-width="1.2" stroke-opacity="0.45"/>
<line x1="270.83" y1="930.74" x2="270.83" y2="935.88" stroke="#0ea5e9" stroke-width="1.2" stroke-opacity="0.45"/>
<line x1="266.83" y1="930.74" x2="274.83" y2="930.74" stroke="#0ea5e9" stroke-width="1.2" stroke-opacity="0.45"/>
<line x1="266.83" y1="935.88" x2="274.83" y2="935.88" stroke="#0ea5e9" stroke-width="1.2" stroke-opacity="0.45"/>
<line x1="333.75" y1="952.36" x2="333.75" y2="964.46" stroke="#0ea5e9" stroke-width="1.2" stroke-opacity="0.45"/>
<line x1="329.75" y1="952.36" x2="337.75" y2="952.36" stroke="#0ea5e9" stroke-width="1.2" stroke-opacity="0.45"/>
<line x1="329.75" y1="964.46" x2="337.75" y2="964.46" stroke="#0ea5e9" stroke-width="1.2" stroke-opacity="0.45"/>
<line x1="396.67" y1="954.78" x2="396.67" y2="967.82" stroke="#0ea5e9" stroke-width="1.2" stroke-opacity="0.45"/>
<line x1="392.67" y1="954.78" x2="400.67" y2="954.78" stroke="#0ea5e9" stroke-width="1.2" stroke-opacity="0.45"/>
<line x1="392.67" y1="967.82" x2="400.67" y2="967.82" stroke="#0ea5e9" stroke-width="1.2" stroke-opacity="0.45"/>
<line x1="459.58" y1="963.74" x2="459.58" y2="973.83" stroke="#0ea5e9" stroke-width="1.2" stroke-opacity="0.45"/>
<line x1="455.58" y1="963.74" x2="463.58" y2="963.74" stroke="#0ea5e9" stroke-width="1.2" stroke-opacity="0.45"/>
<line x1="455.58" y1="973.83" x2="463.58" y2="973.83" stroke="#0ea5e9" stroke-width="1.2" stroke-opacity="0.45"/>
<line x1="522.50" y1="963.67" x2="522.50" y2="976.63" stroke="#0ea5e9" stroke-width="1.2" stroke-opacity="0.45"/>
<line x1="518.50" y1="963.67" x2="526.50" y2="963.67" stroke="#0ea5e9" stroke-width="1.2" stroke-opacity="0.45"/>
<line x1="518.50" y1="976.63" x2="526.50" y2="976.63" stroke="#0ea5e9" stroke-width="1.2" stroke-opacity="0.45"/>
<line x1="585.42" y1="967.88" x2="585.42" y2="979.29" stroke="#0ea5e9" stroke-width="1.2" stroke-opacity="0.45"/>
<line x1="581.42" y1="967.88" x2="589.42" y2="967.88" stroke="#0ea5e9" stroke-width="1.2" stroke-opacity="0.45"/>
<line x1="581.42" y1="979.29" x2="589.42" y2="979.29" stroke="#0ea5e9" stroke-width="1.2" stroke-opacity="0.45"/>
<line x1="648.33" y1="958.32" x2="648.33" y2="966.10" stroke="#0ea5e9" stroke-width="1.2" stroke-opacity="0.45"/>
<line x1="644.33" y1="958.32" x2="652.33" y2="958.32" stroke="#0ea5e9" stroke-width="1.2" stroke-opacity="0.45"/>
<line x1="644.33" y1="966.10" x2="652.33" y2="966.10" stroke="#0ea5e9" stroke-width="1.2" stroke-opacity="0.45"/>
<line x1="711.25" y1="962.80" x2="711.25" y2="969.65" stroke="#0ea5e9" stroke-width="1.2" stroke-opacity="0.45"/>
<line x1="707.25" y1="962.80" x2="715.25" y2="962.80" stroke="#0ea5e9" stroke-width="1.2" stroke-opacity="0.45"/>
<line x1="707.25" y1="969.65" x2="715.25" y2="969.65" stroke="#0ea5e9" stroke-width="1.2" stroke-opacity="0.45"/>
<line x1="774.17" y1="955.77" x2="774.17" y2="972.70" stroke="#0ea5e9" stroke-width="1.2" stroke-opacity="0.45"/>
<line x1="770.17" y1="955.77" x2="778.17" y2="955.77" stroke="#0ea5e9" stroke-width="1.2" stroke-opacity="0.45"/>
<line x1="770.17" y1="972.70" x2="778.17" y2="972.70" stroke="#0ea5e9" stroke-width="1.2" stroke-opacity="0.45"/>
<line x1="837.08" y1="961.58" x2="837.08" y2="966.56" stroke="#0ea5e9" stroke-width="1.2" stroke-opacity="0.45"/>
<line x1="833.08" y1="961.58" x2="841.08" y2="961.58" stroke="#0ea5e9" stroke-width="1.2" stroke-opacity="0.45"/>
<line x1="833.08" y1="966.56" x2="841.08" y2="966.56" stroke="#0ea5e9" stroke-width="1.2" stroke-opacity="0.45"/>
<line x1="900.00" y1="954.28" x2="900.00" y2="955.14" stroke="#0ea5e9" stroke-width="1.2" stroke-opacity="0.45"/>
<line x1="896.00" y1="954.28" x2="904.00" y2="954.28" stroke="#0ea5e9" stroke-width="1.2" stroke-opacity="0.45"/>
<line x1="896.00" y1="955.14" x2="904.00" y2="955.14" stroke="#0ea5e9" stroke-width="1.2" stroke-opacity="0.45"/>
<circle cx="145.00" cy="829.42" r="8" fill="#0ea5e9" fill-opacity="0.12" stroke="none"/>
<circle cx="145.00" cy="829.42" r="4" fill="#0ea5e9" stroke="#ffffff" stroke-width="1.5"/>
<circle cx="207.92" cy="894.58" r="8" fill="#0ea5e9" fill-opacity="0.12" stroke="none"/>
<circle cx="207.92" cy="894.58" r="4" fill="#0ea5e9" stroke="#ffffff" stroke-width="1.5"/>
<circle cx="270.83" cy="933.31" r="8" fill="#0ea5e9" fill-opacity="0.12" stroke="none"/>
<circle cx="270.83" cy="933.31" r="4" fill="#0ea5e9" stroke="#ffffff" stroke-width="1.5"/>
<circle cx="333.75" cy="958.41" r="8" fill="#0ea5e9" fill-opacity="0.12" stroke="none"/>
<circle cx="333.75" cy="958.41" r="4" fill="#0ea5e9" stroke="#ffffff" stroke-width="1.5"/>
<circle cx="396.67" cy="961.30" r="8" fill="#0ea5e9" fill-opacity="0.12" stroke="none"/>
<circle cx="396.67" cy="961.30" r="4" fill="#0ea5e9" stroke="#ffffff" stroke-width="1.5"/>
<circle cx="459.58" cy="968.79" r="8" fill="#0ea5e9" fill-opacity="0.12" stroke="none"/>
<circle cx="459.58" cy="968.79" r="4" fill="#0ea5e9" stroke="#ffffff" stroke-width="1.5"/>
<circle cx="522.50" cy="970.15" r="8" fill="#0ea5e9" fill-opacity="0.12" stroke="none"/>
<circle cx="522.50" cy="970.15" r="4" fill="#0ea5e9" stroke="#ffffff" stroke-width="1.5"/>
<circle cx="585.42" cy="973.58" r="8" fill="#0ea5e9" fill-opacity="0.12" stroke="none"/>
<circle cx="585.42" cy="973.58" r="4" fill="#0ea5e9" stroke="#ffffff" stroke-width="1.5"/>
<circle cx="648.33" cy="962.21" r="8" fill="#0ea5e9" fill-opacity="0.12" stroke="none"/>
<circle cx="648.33" cy="962.21" r="4" fill="#0ea5e9" stroke="#ffffff" stroke-width="1.5"/>
<circle cx="711.25" cy="966.22" r="8" fill="#0ea5e9" fill-opacity="0.12" stroke="none"/>
<circle cx="711.25" cy="966.22" r="4" fill="#0ea5e9" stroke="#ffffff" stroke-width="1.5"/>
<circle cx="774.17" cy="964.24" r="8" fill="#0ea5e9" fill-opacity="0.12" stroke="none"/>
<circle cx="774.17" cy="964.24" r="4" fill="#0ea5e9" stroke="#ffffff" stroke-width="1.5"/>
<circle cx="837.08" cy="964.07" r="8" fill="#0ea5e9" fill-opacity="0.12" stroke="none"/>
<circle cx="837.08" cy="964.07" r="4" fill="#0ea5e9" stroke="#ffffff" stroke-width="1.5"/>
<circle cx="900.00" cy="954.71" r="8" fill="#0ea5e9" fill-opacity="0.12" stroke="none"/>
<circle cx="900.00" cy="954.71" r="4" fill="#0ea5e9" stroke="#ffffff" stroke-width="1.5"/>
<rect x="765" y="783" width="22" height="4" rx="2" fill="#0ea5e9" fill-opacity="0.85"/>
<text x="793" y="790" font-family="system-ui,'Segoe UI',Arial,sans-serif" font-size="11" fill="#374151">Délai moyen (ms)</text>
  <text x="960" y="1176" text-anchor="end"
    font-family="system-ui,'Segoe UI',Arial,sans-serif"
    font-size="10" fill="#9ca3af">csma_ca_sim.py</text>
</svg>
